{"glyphs":{"0":{"ha":694,"x_min":0,"x_max":694,"o":"m 0 1110 l 694 1110 l 694 1457 l 0 1457 l 0 1110 m 390 1283 q 428 1373 390 1332 q 521 1414 465 1414 q 610 1376 569 1414 q 651 1283 651 1339 q 614 1192 651 1233 q 521 1153 575 1153 q 429 1190 471 1153 q 390 1283 390 1229 m 43 1283 q 81 1373 43 1332 q 174 1414 118 1414 q 263 1376 222 1414 q 304 1283 304 1339 q 267 1192 304 1233 q 174 1153 228 1153 q 82 1190 124 1153 q 43 1283 43 1229 m 0 -346 l 694 -346 l 694 1 l 0 1 l 0 -346 m 390 -172 q 428 -81 390 -122 q 521 -42 467 -42 q 610 -79 569 -42 q 651 -172 651 -117 q 614 -262 651 -221 q 521 -303 576 -303 q 429 -265 471 -303 q 390 -172 390 -226 m 43 -172 q 81 -81 43 -122 q 174 -42 119 -42 q 263 -79 222 -42 q 304 -172 304 -117 q 267 -262 304 -221 q 174 -303 229 -303 q 82 -265 124 -303 q 43 -172 43 -226 m 349 1064 q 476 1011 429 1064 q 522 890 522 958 l 522 206 q 471 82 522 128 q 349 39 419 39 q 219 87 265 39 q 172 203 172 135 l 172 892 q 223 1017 172 971 q 349 1064 274 1064 m 347 958 q 295 937 313 958 q 278 872 278 915 l 278 229 q 294 166 278 186 q 350 146 310 146 q 400 167 383 146 q 417 231 417 188 l 417 876 q 399 938 417 918 q 347 958 382 958 z "},"1":{"ha":347,"x_min":0,"x_max":347,"o":"m 0 1110 l 347 1110 l 347 1457 l 0 1457 l 0 1110 m 43 1283 q 81 1373 43 1332 q 174 1414 118 1414 q 263 1376 222 1414 q 304 1283 304 1339 q 267 1192 304 1233 q 174 1153 228 1153 q 82 1190 124 1153 q 43 1283 43 1229 m 0 -346 l 347 -346 l 347 1 l 0 1 l 0 -346 m 43 -172 q 81 -81 43 -122 q 174 -42 119 -42 q 263 -79 222 -42 q 304 -172 304 -117 q 267 -262 304 -221 q 174 -303 229 -303 q 82 -265 124 -303 q 43 -172 43 -226 m 247 1072 l 247 56 l 142 56 l 142 888 l 61 888 l 247 1072 z "},"2":{"ha":694,"x_min":0,"x_max":694,"o":"m 0 1110 l 694 1110 l 694 1457 l 0 1457 l 0 1110 m 390 1283 q 428 1373 390 1332 q 521 1414 465 1414 q 610 1376 569 1414 q 651 1283 651 1339 q 614 1192 651 1233 q 521 1153 575 1153 q 429 1190 471 1153 q 390 1283 390 1229 m 43 1283 q 81 1373 43 1332 q 174 1414 118 1414 q 263 1376 222 1414 q 304 1283 304 1339 q 267 1192 304 1233 q 174 1153 228 1153 q 82 1190 124 1153 q 43 1283 43 1229 m 0 -346 l 694 -346 l 694 1 l 0 1 l 0 -346 m 390 -172 q 428 -81 390 -122 q 521 -42 467 -42 q 610 -79 569 -42 q 651 -172 651 -117 q 614 -262 651 -221 q 521 -303 576 -303 q 429 -265 471 -303 q 390 -172 390 -226 m 43 -172 q 81 -81 43 -122 q 174 -42 119 -42 q 263 -79 222 -42 q 304 -172 304 -117 q 267 -262 304 -221 q 174 -303 229 -303 q 82 -265 124 -303 q 43 -172 43 -226 m 357 1064 q 480 1017 429 1064 q 531 890 531 971 l 531 643 l 531 624 l 531 608 l 528 594 l 521 556 l 489 482 l 440 376 l 386 263 l 344 168 l 531 168 l 531 63 l 181 63 l 232 175 l 294 310 l 357 443 l 408 551 q 421 599 417 571 l 425 647 l 425 892 q 408 940 425 921 q 356 958 390 958 q 305 940 324 958 q 286 882 286 921 l 286 647 l 181 647 l 181 894 q 231 1013 181 963 q 357 1064 281 1064 z "},"3":{"ha":694,"x_min":0,"x_max":694,"o":"m 0 1110 l 694 1110 l 694 1457 l 0 1457 l 0 1110 m 390 1283 q 428 1373 390 1332 q 521 1414 465 1414 q 610 1376 569 1414 q 651 1283 651 1339 q 614 1192 651 1233 q 521 1153 575 1153 q 429 1190 471 1153 q 390 1283 390 1229 m 43 1283 q 81 1373 43 1332 q 174 1414 118 1414 q 263 1376 222 1414 q 304 1283 304 1339 q 267 1192 304 1233 q 174 1153 228 1153 q 82 1190 124 1153 q 43 1283 43 1229 m 0 -346 l 694 -346 l 694 1 l 0 1 l 0 -346 m 390 -172 q 428 -81 390 -122 q 521 -42 467 -42 q 610 -79 569 -42 q 651 -172 651 -117 q 614 -262 651 -221 q 521 -303 576 -303 q 429 -265 471 -303 q 390 -172 390 -226 m 43 -172 q 81 -81 43 -122 q 174 -42 119 -42 q 263 -79 222 -42 q 304 -172 304 -117 q 267 -262 304 -221 q 174 -303 229 -303 q 82 -265 124 -303 q 43 -172 43 -226 m 529 186 q 483 90 529 128 q 371 56 436 56 l 179 56 l 179 161 l 369 161 q 413 170 403 161 q 424 211 424 179 q 412 246 424 233 q 369 258 400 258 l 179 258 l 115 356 l 276 356 q 382 475 340 397 q 424 639 424 553 q 358 839 424 750 q 179 961 293 928 l 179 1074 q 434 915 339 1028 q 529 642 529 801 q 499 472 529 543 q 429 357 469 401 q 503 306 476 340 q 529 229 529 271 l 529 186 z "},"4":{"ha":694,"x_min":0,"x_max":694,"o":"m 0 1110 l 694 1110 l 694 1457 l 0 1457 l 0 1110 m 390 1283 q 428 1373 390 1332 q 521 1414 465 1414 q 610 1376 569 1414 q 651 1283 651 1339 q 614 1192 651 1233 q 521 1153 575 1153 q 429 1190 471 1153 q 390 1283 390 1229 m 43 1283 q 81 1373 43 1332 q 174 1414 118 1414 q 263 1376 222 1414 q 304 1283 304 1339 q 267 1192 304 1233 q 174 1153 228 1153 q 82 1190 124 1153 q 43 1283 43 1229 m 0 -346 l 694 -346 l 694 1 l 0 1 l 0 -346 m 390 -172 q 428 -81 390 -122 q 521 -42 467 -42 q 610 -79 569 -42 q 651 -172 651 -117 q 614 -262 651 -221 q 521 -303 576 -303 q 429 -265 471 -303 q 390 -172 390 -226 m 43 -172 q 81 -81 43 -122 q 174 -42 119 -42 q 263 -79 222 -42 q 304 -172 304 -117 q 267 -262 304 -221 q 174 -303 229 -303 q 82 -265 124 -303 q 43 -172 43 -226 m 453 1065 l 453 353 l 597 353 l 547 247 l 453 247 l 453 49 l 347 49 l 347 247 l 72 247 l 453 1065 m 347 617 l 226 353 l 347 353 l 347 617 z "},"5":{"ha":694,"x_min":0,"x_max":694,"o":"m 0 1110 l 694 1110 l 694 1457 l 0 1457 l 0 1110 m 390 1283 q 428 1373 390 1332 q 521 1414 465 1414 q 610 1376 569 1414 q 651 1283 651 1339 q 614 1192 651 1233 q 521 1153 575 1153 q 429 1190 471 1153 q 390 1283 390 1229 m 43 1283 q 81 1373 43 1332 q 174 1414 118 1414 q 263 1376 222 1414 q 304 1283 304 1339 q 267 1192 304 1233 q 174 1153 228 1153 q 82 1190 124 1153 q 43 1283 43 1229 m 0 -346 l 694 -346 l 694 1 l 0 1 l 0 -346 m 390 -172 q 428 -81 390 -122 q 521 -42 467 -42 q 610 -79 569 -42 q 651 -172 651 -117 q 614 -262 651 -221 q 521 -303 576 -303 q 429 -265 471 -303 q 390 -172 390 -226 m 43 -172 q 81 -81 43 -122 q 174 -42 119 -42 q 263 -79 222 -42 q 304 -172 304 -117 q 267 -262 304 -221 q 174 -303 229 -303 q 82 -265 124 -303 q 43 -172 43 -226 m 526 1046 l 526 939 l 275 939 l 275 383 l 376 383 q 486 340 444 383 q 526 247 526 303 l 526 201 q 493 108 526 150 q 375 69 458 69 l 168 69 l 168 175 l 363 175 q 410 186 400 175 q 419 226 419 197 q 410 265 419 256 q 364 275 400 275 l 168 275 l 168 1046 l 526 1046 z "},"6":{"ha":694,"x_min":0,"x_max":694,"o":"m 0 1110 l 694 1110 l 694 1457 l 0 1457 l 0 1110 m 390 1283 q 428 1373 390 1332 q 521 1414 465 1414 q 610 1376 569 1414 q 651 1283 651 1339 q 614 1192 651 1233 q 521 1153 575 1153 q 429 1190 471 1153 q 390 1283 390 1229 m 43 1283 q 81 1373 43 1332 q 174 1414 118 1414 q 263 1376 222 1414 q 304 1283 304 1339 q 267 1192 304 1233 q 174 1153 228 1153 q 82 1190 124 1153 q 43 1283 43 1229 m 0 -346 l 694 -346 l 694 1 l 0 1 l 0 -346 m 390 -172 q 428 -81 390 -122 q 521 -42 467 -42 q 610 -79 569 -42 q 651 -172 651 -117 q 614 -262 651 -221 q 521 -303 576 -303 q 429 -265 471 -303 q 390 -172 390 -226 m 43 -172 q 81 -81 43 -122 q 174 -42 119 -42 q 263 -79 222 -42 q 304 -172 304 -117 q 267 -262 304 -221 q 174 -303 229 -303 q 82 -265 124 -303 q 43 -172 43 -226 m 340 1064 q 463 1017 411 1064 q 515 893 515 971 l 515 650 l 410 650 l 410 890 q 390 939 410 919 q 339 958 371 958 q 291 940 311 958 q 271 889 271 922 l 271 367 l 371 367 q 481 324 446 367 q 515 236 515 285 l 515 178 q 474 98 515 133 q 369 63 433 63 l 322 63 q 205 116 244 63 q 165 274 165 169 l 165 896 q 212 1009 165 954 q 340 1064 258 1064 m 271 267 l 271 229 q 286 182 271 197 q 350 168 304 168 q 401 177 392 168 q 410 217 410 186 q 401 256 410 244 q 369 267 393 267 l 271 267 z "},"7":{"ha":694,"x_min":0,"x_max":694,"o":"m 0 1110 l 694 1110 l 694 1457 l 0 1457 l 0 1110 m 390 1283 q 428 1373 390 1332 q 521 1414 465 1414 q 610 1376 569 1414 q 651 1283 651 1339 q 614 1192 651 1233 q 521 1153 575 1153 q 429 1190 471 1153 q 390 1283 390 1229 m 43 1283 q 81 1373 43 1332 q 174 1414 118 1414 q 263 1376 222 1414 q 304 1283 304 1339 q 267 1192 304 1233 q 174 1153 228 1153 q 82 1190 124 1153 q 43 1283 43 1229 m 0 -346 l 694 -346 l 694 1 l 0 1 l 0 -346 m 390 -172 q 428 -81 390 -122 q 521 -42 467 -42 q 610 -79 569 -42 q 651 -172 651 -117 q 614 -262 651 -221 q 521 -303 576 -303 q 429 -265 471 -303 q 390 -172 390 -226 m 43 -172 q 81 -81 43 -122 q 174 -42 119 -42 q 263 -79 222 -42 q 304 -172 304 -117 q 267 -262 304 -221 q 174 -303 229 -303 q 82 -265 124 -303 q 43 -172 43 -226 m 206 1039 l 546 1039 l 303 63 l 188 63 l 404 932 l 206 932 l 206 1039 z "},"8":{"ha":694,"x_min":0,"x_max":694,"o":"m 0 1110 l 694 1110 l 694 1457 l 0 1457 l 0 1110 m 390 1283 q 428 1373 390 1332 q 521 1414 465 1414 q 610 1376 569 1414 q 651 1283 651 1339 q 614 1192 651 1233 q 521 1153 575 1153 q 429 1190 471 1153 q 390 1283 390 1229 m 43 1283 q 81 1373 43 1332 q 174 1414 118 1414 q 263 1376 222 1414 q 304 1283 304 1339 q 267 1192 304 1233 q 174 1153 228 1153 q 82 1190 124 1153 q 43 1283 43 1229 m 0 -346 l 694 -346 l 694 1 l 0 1 l 0 -346 m 390 -172 q 428 -81 390 -122 q 521 -42 467 -42 q 610 -79 569 -42 q 651 -172 651 -117 q 614 -262 651 -221 q 521 -303 576 -303 q 429 -265 471 -303 q 390 -172 390 -226 m 43 -172 q 81 -81 43 -122 q 174 -42 119 -42 q 263 -79 222 -42 q 304 -172 304 -117 q 267 -262 304 -221 q 174 -303 229 -303 q 82 -265 124 -303 q 43 -172 43 -226 m 335 1071 q 461 1013 414 1071 q 508 879 508 956 l 508 524 q 506 472 508 488 q 493 432 503 457 q 447 353 481 390 q 490 297 471 329 q 508 214 508 265 q 457 90 508 138 q 335 46 406 46 q 207 94 256 46 q 158 214 158 143 q 176 294 158 261 q 219 353 193 326 q 174 432 190 389 q 158 519 158 475 l 158 881 q 208 1017 158 964 q 335 1071 258 1071 m 264 221 q 281 172 264 197 q 336 150 300 150 q 385 169 367 150 q 396 188 389 175 q 403 221 403 201 q 383 269 403 250 q 333 288 364 288 q 288 272 311 288 q 264 221 264 257 m 333 965 q 282 943 300 965 q 264 879 264 921 l 264 532 q 281 444 264 474 q 333 397 297 414 q 385 442 368 414 q 403 531 403 471 l 403 883 q 385 945 403 925 q 333 965 368 965 z "},"9":{"ha":694,"x_min":0,"x_max":694,"o":"m 0 1110 l 694 1110 l 694 1457 l 0 1457 l 0 1110 m 390 1283 q 428 1373 390 1332 q 521 1414 465 1414 q 610 1376 569 1414 q 651 1283 651 1339 q 614 1192 651 1233 q 521 1153 575 1153 q 429 1190 471 1153 q 390 1283 390 1229 m 43 1283 q 81 1373 43 1332 q 174 1414 118 1414 q 263 1376 222 1414 q 304 1283 304 1339 q 267 1192 304 1233 q 174 1153 228 1153 q 82 1190 124 1153 q 43 1283 43 1229 m 0 -346 l 694 -346 l 694 1 l 0 1 l 0 -346 m 390 -172 q 428 -81 390 -122 q 521 -42 467 -42 q 610 -79 569 -42 q 651 -172 651 -117 q 614 -262 651 -221 q 521 -303 576 -303 q 429 -265 471 -303 q 390 -172 390 -226 m 43 -172 q 81 -81 43 -122 q 174 -42 119 -42 q 263 -79 222 -42 q 304 -172 304 -117 q 267 -262 304 -221 q 174 -303 229 -303 q 82 -265 124 -303 q 43 -172 43 -226 m 344 1057 q 469 1004 425 1057 q 517 875 517 953 l 517 299 q 504 163 517 226 q 460 56 492 100 l 331 56 q 392 146 367 92 q 411 261 411 201 l 326 261 q 212 318 254 261 q 169 451 169 375 l 169 868 q 220 1008 169 958 q 344 1057 271 1057 m 343 951 q 292 931 311 951 q 275 865 275 910 l 275 457 q 287 390 275 410 q 332 369 299 369 l 411 369 l 411 865 q 394 931 411 911 q 343 951 376 951 z "}," ":{"ha":694,"x_min":0,"x_max":0,"o":""},"!":{"ha":347,"x_min":0,"x_max":347,"o":"m 0 1110 l 347 1110 l 347 1457 l 0 1457 l 0 1110 m 43 1283 q 81 1373 43 1332 q 174 1414 118 1414 q 263 1376 222 1414 q 304 1283 304 1339 q 267 1192 304 1233 q 174 1153 228 1153 q 82 1190 124 1153 q 43 1283 43 1229 m 0 -346 l 347 -346 l 347 1 l 0 1 l 0 -346 m 43 -172 q 81 -81 43 -122 q 174 -42 119 -42 q 263 -79 222 -42 q 304 -172 304 -117 q 267 -262 304 -221 q 174 -303 229 -303 q 82 -265 124 -303 q 43 -172 43 -226 m 117 1060 l 222 1060 l 222 281 l 117 281 l 117 1060 m 117 182 l 222 182 l 222 76 l 117 76 l 117 182 z "},"\"":{"ha":347,"x_min":0,"x_max":347,"o":"m 0 1110 l 347 1110 l 347 1457 l 0 1457 l 0 1110 m 43 1283 q 81 1373 43 1332 q 174 1414 118 1414 q 263 1376 222 1414 q 304 1283 304 1339 q 267 1192 304 1233 q 174 1153 228 1153 q 82 1190 124 1153 q 43 1283 43 1229 m 0 -346 l 347 -346 l 347 1 l 0 1 l 0 -346 m 43 -172 q 81 -81 43 -122 q 174 -42 119 -42 q 263 -79 222 -42 q 304 -172 304 -117 q 267 -262 304 -221 q 174 -303 229 -303 q 82 -265 124 -303 q 43 -172 43 -226 m 75 1025 l 135 1025 l 135 718 l 75 718 l 75 1025 m 204 1025 l 264 1025 l 264 718 l 204 718 l 204 1025 z "},"#":{"ha":694,"x_min":0,"x_max":694,"o":"m 0 1110 l 694 1110 l 694 1457 l 0 1457 l 0 1110 m 390 1283 q 428 1373 390 1332 q 521 1414 465 1414 q 610 1376 569 1414 q 651 1283 651 1339 q 614 1192 651 1233 q 521 1153 575 1153 q 429 1190 471 1153 q 390 1283 390 1229 m 43 1283 q 81 1373 43 1332 q 174 1414 118 1414 q 263 1376 222 1414 q 304 1283 304 1339 q 267 1192 304 1233 q 174 1153 228 1153 q 82 1190 124 1153 q 43 1283 43 1229 m 0 -346 l 694 -346 l 694 1 l 0 1 l 0 -346 m 390 -172 q 428 -81 390 -122 q 521 -42 467 -42 q 610 -79 569 -42 q 651 -172 651 -117 q 614 -262 651 -221 q 521 -303 576 -303 q 429 -265 471 -303 q 390 -172 390 -226 m 43 -172 q 81 -81 43 -122 q 174 -42 119 -42 q 263 -79 222 -42 q 304 -172 304 -117 q 267 -262 304 -221 q 174 -303 229 -303 q 82 -265 124 -303 q 43 -172 43 -226 m 385 1004 l 343 850 l 436 850 l 476 1004 l 536 1004 l 496 850 l 588 850 l 571 789 l 479 789 l 439 636 l 531 636 l 514 576 l 424 576 l 381 424 l 321 424 l 363 576 l 269 576 l 229 424 l 169 424 l 210 576 l 118 576 l 131 636 l 226 636 l 267 789 l 176 789 l 192 850 l 283 850 l 325 1004 l 385 1004 m 419 789 l 326 789 l 286 636 l 379 636 l 419 789 z "},"$":{"ha":694,"x_min":0,"x_max":694,"o":"m 0 1110 l 694 1110 l 694 1457 l 0 1457 l 0 1110 m 390 1283 q 428 1373 390 1332 q 521 1414 465 1414 q 610 1376 569 1414 q 651 1283 651 1339 q 614 1192 651 1233 q 521 1153 575 1153 q 429 1190 471 1153 q 390 1283 390 1229 m 43 1283 q 81 1373 43 1332 q 174 1414 118 1414 q 263 1376 222 1414 q 304 1283 304 1339 q 267 1192 304 1233 q 174 1153 228 1153 q 82 1190 124 1153 q 43 1283 43 1229 m 0 -346 l 694 -346 l 694 1 l 0 1 l 0 -346 m 390 -172 q 428 -81 390 -122 q 521 -42 467 -42 q 610 -79 569 -42 q 651 -172 651 -117 q 614 -262 651 -221 q 521 -303 576 -303 q 429 -265 471 -303 q 390 -172 390 -226 m 43 -172 q 81 -81 43 -122 q 174 -42 119 -42 q 263 -79 222 -42 q 304 -172 304 -117 q 267 -262 304 -221 q 174 -303 229 -303 q 82 -265 124 -303 q 43 -172 43 -226 m 385 1067 l 385 969 l 457 969 l 413 925 q 393 899 403 914 q 374 867 383 885 l 344 815 q 333 750 333 793 l 335 711 l 349 668 l 386 569 l 404 519 l 421 471 q 439 358 439 410 q 435 301 439 321 l 418 254 q 378 160 401 194 l 357 160 l 357 51 l 315 51 l 315 160 l 243 160 q 269 201 254 175 q 300 256 285 226 l 321 297 q 328 353 328 315 l 324 406 q 310 456 321 429 l 272 546 q 235 647 253 589 l 222 699 l 219 756 q 229 824 219 803 l 251 874 l 281 926 l 313 969 l 346 969 l 346 1067 l 385 1067 z "},"%":{"ha":694,"x_min":0,"x_max":694,"o":"m 0 1110 l 694 1110 l 694 1457 l 0 1457 l 0 1110 m 390 1283 q 428 1373 390 1332 q 521 1414 465 1414 q 610 1376 569 1414 q 651 1283 651 1339 q 614 1192 651 1233 q 521 1153 575 1153 q 429 1190 471 1153 q 390 1283 390 1229 m 43 1283 q 81 1373 43 1332 q 174 1414 118 1414 q 263 1376 222 1414 q 304 1283 304 1339 q 267 1192 304 1233 q 174 1153 228 1153 q 82 1190 124 1153 q 43 1283 43 1229 m 0 -346 l 694 -346 l 694 1 l 0 1 l 0 -346 m 390 -172 q 428 -81 390 -122 q 521 -42 467 -42 q 610 -79 569 -42 q 651 -172 651 -117 q 614 -262 651 -221 q 521 -303 576 -303 q 429 -265 471 -303 q 390 -172 390 -226 m 43 -172 q 81 -81 43 -122 q 174 -42 119 -42 q 263 -79 222 -42 q 304 -172 304 -117 q 267 -262 304 -221 q 174 -303 229 -303 q 82 -265 124 -303 q 43 -172 43 -226 m 35 908 q 63 978 35 950 q 136 1006 90 1006 q 212 978 183 1006 q 240 907 240 950 l 240 544 q 207 472 240 500 q 172 455 188 460 q 136 450 157 450 q 61 476 89 450 q 35 547 35 507 l 35 908 m 106 899 l 106 556 q 114 522 106 535 q 138 515 122 518 q 161 528 154 515 l 165 539 l 168 563 l 168 899 q 160 931 168 922 q 136 943 151 940 q 113 932 122 943 q 106 899 108 924 m 490 996 l 253 111 l 197 111 l 433 996 l 490 996 m 518 204 q 524 172 518 178 q 550 164 531 167 q 575 176 568 164 l 581 211 l 581 547 q 572 579 581 567 q 547 589 565 586 q 524 579 535 589 l 518 547 l 518 204 m 447 194 l 447 556 q 476 627 447 599 q 549 656 504 656 q 624 626 594 656 q 653 554 653 597 l 653 190 q 619 121 653 150 l 585 104 l 547 99 q 474 125 506 99 q 447 194 447 156 z "},"&":{"ha":694,"x_min":0,"x_max":694,"o":"m 0 1110 l 694 1110 l 694 1457 l 0 1457 l 0 1110 m 390 1283 q 428 1373 390 1332 q 521 1414 465 1414 q 610 1376 569 1414 q 651 1283 651 1339 q 614 1192 651 1233 q 521 1153 575 1153 q 429 1190 471 1153 q 390 1283 390 1229 m 43 1283 q 81 1373 43 1332 q 174 1414 118 1414 q 263 1376 222 1414 q 304 1283 304 1339 q 267 1192 304 1233 q 174 1153 228 1153 q 82 1190 124 1153 q 43 1283 43 1229 m 0 -346 l 694 -346 l 694 1 l 0 1 l 0 -346 m 390 -172 q 428 -81 390 -122 q 521 -42 467 -42 q 610 -79 569 -42 q 651 -172 651 -117 q 614 -262 651 -221 q 521 -303 576 -303 q 429 -265 471 -303 q 390 -172 390 -226 m 43 -172 q 81 -81 43 -122 q 174 -42 119 -42 q 263 -79 222 -42 q 304 -172 304 -117 q 267 -262 304 -221 q 174 -303 229 -303 q 82 -265 124 -303 q 43 -172 43 -226 m 114 647 q 210 917 114 801 q 468 1081 307 1033 l 468 972 q 292 858 364 943 q 263 817 276 840 q 239 763 250 793 q 219 643 219 707 q 261 476 219 549 q 363 374 303 404 l 363 649 l 468 649 l 468 374 l 617 374 l 550 272 l 468 272 l 468 63 l 251 63 q 149 106 190 63 q 114 196 114 149 l 114 246 q 144 321 114 286 q 213 364 174 350 q 145 483 176 411 q 114 647 114 556 m 363 272 l 276 272 q 232 264 249 272 q 219 224 219 256 q 231 180 219 192 q 274 168 242 168 l 363 168 l 363 272 z "},"'":{"ha":347,"x_min":0,"x_max":347,"o":"m 0 1110 l 347 1110 l 347 1457 l 0 1457 l 0 1110 m 43 1283 q 81 1373 43 1332 q 174 1414 118 1414 q 263 1376 222 1414 q 304 1283 304 1339 q 267 1192 304 1233 q 174 1153 228 1153 q 82 1190 124 1153 q 43 1283 43 1229 m 0 -346 l 347 -346 l 347 1 l 0 1 l 0 -346 m 43 -172 q 81 -81 43 -122 q 174 -42 119 -42 q 263 -79 222 -42 q 304 -172 304 -117 q 267 -262 304 -221 q 174 -303 229 -303 q 82 -265 124 -303 q 43 -172 43 -226 m 204 1025 l 204 718 l 144 718 l 144 1025 l 204 1025 z "},"(":{"ha":868,"x_min":-1,"x_max":867,"o":"m 832 1285 q 794 1378 832 1336 q 701 1415 753 1415 q 610 1378 651 1415 q 572 1285 572 1340 q 610 1193 572 1235 q 701 1156 647 1156 q 794 1193 753 1156 q 832 1285 832 1235 m 524 1281 q 485 1371 524 1332 q 393 1410 446 1410 q 301 1372 339 1410 q 263 1281 263 1333 q 301 1188 263 1226 q 393 1150 343 1150 q 485 1189 447 1150 q 524 1281 524 1228 m 303 390 q 265 480 303 439 q 172 521 228 521 q 81 483 122 521 q 42 390 42 444 q 79 299 42 340 q 172 260 118 260 q 262 297 221 260 q 303 390 303 335 m 832 -174 q 794 -82 832 -124 q 701 -44 754 -44 q 610 -82 650 -44 q 572 -174 572 -122 q 581 -222 572 -200 q 610 -267 589 -243 q 701 -304 650 -304 q 794 -267 750 -304 q 832 -174 832 -226 m 306 1063 q 268 1156 306 1114 q 176 1193 226 1193 q 83 1156 125 1193 q 46 1063 46 1114 q 83 971 46 1013 q 176 933 121 933 q 268 971 226 933 q 306 1063 306 1008 m 524 -169 q 485 -78 524 -117 q 393 -39 446 -39 q 301 -76 343 -39 q 263 -169 263 -115 q 300 -260 263 -218 q 393 -299 339 -299 q 485 -260 446 -299 q 524 -169 524 -221 m 306 49 q 268 140 306 100 q 176 178 228 178 q 128 169 150 178 q 83 140 107 161 q 46 49 46 100 q 83 -44 46 0 q 176 -82 124 -82 q 268 -44 226 -82 q 306 49 306 -4 m 303 735 q 264 827 303 789 q 172 865 225 865 q 80 826 118 865 q 42 735 42 788 q 81 642 42 681 q 172 604 121 604 q 265 644 226 604 q 303 735 303 683 m 346 175 l 346 146 l 350 122 q 386 42 354 74 q 486 4 411 17 l 519 1 l 867 1 l 867 -346 l 433 -346 q 372 -340 394 -346 q 129 -215 233 -315 q 17 -17 54 -142 l 4 35 l -1 88 l -1 575 l -1 1024 q 4 1082 -1 1058 l 17 1128 q 62 1240 35 1193 q 129 1326 89 1286 q 372 1451 232 1426 l 433 1457 l 867 1457 l 867 1110 l 519 1110 l 486 1107 q 383 1068 411 1099 q 350 989 356 1038 l 346 951 l 346 936 l 346 561 l 346 175 z "},")":{"ha":1028,"x_min":3,"x_max":871,"o":"m 871 88 q 865 29 871 53 l 853 -17 q 807 -126 836 -78 q 740 -215 783 -172 q 497 -340 638 -315 l 436 -346 l 3 -346 l 3 1 l 350 1 l 383 4 q 485 43 458 15 q 519 122 511 71 l 522 149 l 524 175 l 524 561 l 524 936 l 524 951 l 519 989 q 488 1065 515 1035 q 383 1107 460 1094 l 350 1110 l 3 1110 l 3 1457 l 436 1457 q 497 1451 475 1457 q 740 1326 636 1426 q 853 1128 815 1253 l 865 1075 l 871 1024 l 871 575 l 871 88 m 824 1063 q 786 1156 824 1111 q 693 1193 746 1193 q 601 1156 643 1193 q 564 1063 564 1115 q 601 971 564 1011 q 693 933 642 933 q 741 942 719 933 q 786 971 763 950 q 824 1063 824 1011 m 607 1281 q 568 1370 607 1331 q 476 1410 529 1410 q 385 1371 424 1410 q 346 1281 346 1332 q 384 1190 346 1229 q 476 1150 422 1150 q 568 1188 526 1150 q 607 1281 607 1226 m 297 1285 q 289 1333 297 1311 q 260 1378 281 1354 q 168 1415 219 1415 q 75 1378 119 1415 q 38 1285 38 1338 q 75 1193 38 1235 q 168 1156 115 1156 q 260 1193 219 1156 q 297 1285 297 1233 m 828 735 q 790 824 828 783 q 697 865 753 865 q 606 828 647 865 q 567 735 567 789 q 604 643 567 685 q 697 604 643 604 q 787 642 746 604 q 828 735 828 679 m 828 390 q 789 483 828 444 q 697 521 750 521 q 605 482 643 521 q 567 390 567 443 q 606 298 567 336 q 697 260 646 260 q 790 299 751 260 q 828 390 828 339 m 824 49 q 786 140 824 99 q 693 178 749 178 q 601 140 643 178 q 564 49 564 103 q 601 -44 564 -3 q 693 -82 643 -82 q 786 -44 744 -82 q 824 49 824 -3 m 607 -169 q 568 -76 607 -115 q 476 -39 526 -39 q 384 -77 422 -39 q 346 -169 346 -115 q 385 -260 346 -221 q 476 -299 424 -299 q 569 -260 531 -299 q 607 -169 607 -221 m 297 -174 q 260 -82 297 -124 q 168 -44 222 -44 q 75 -82 117 -44 q 38 -174 38 -124 q 75 -267 38 -225 q 168 -304 117 -304 q 260 -267 218 -304 q 297 -174 297 -229 z "},"*":{"ha":347,"x_min":0,"x_max":347,"o":"m 0 1110 l 347 1110 l 347 1457 l 0 1457 l 0 1110 m 43 1283 q 81 1373 43 1332 q 174 1414 118 1414 q 263 1376 222 1414 q 304 1283 304 1339 q 267 1192 304 1233 q 174 1153 228 1153 q 82 1190 124 1153 q 43 1283 43 1229 m 0 -346 l 347 -346 l 347 1 l 0 1 l 0 -346 m 43 -172 q 81 -81 43 -122 q 174 -42 119 -42 q 263 -79 222 -42 q 304 -172 304 -117 q 267 -262 304 -221 q 174 -303 229 -303 q 82 -265 124 -303 q 43 -172 43 -226 m 210 976 l 210 875 l 296 926 l 326 872 l 243 826 l 243 821 l 326 775 l 296 721 l 210 771 l 210 669 l 150 669 l 150 771 l 63 721 l 32 774 l 117 821 l 32 874 l 63 926 l 150 874 l 150 976 l 210 976 z "},"+":{"ha":347,"x_min":0,"x_max":347,"o":"m 0 1110 l 347 1110 l 347 1457 l 0 1457 l 0 1110 m 43 1283 q 81 1373 43 1332 q 174 1414 118 1414 q 263 1376 222 1414 q 304 1283 304 1339 q 267 1192 304 1233 q 174 1153 228 1153 q 82 1190 124 1153 q 43 1283 43 1229 m 0 -346 l 347 -346 l 347 1 l 0 1 l 0 -346 m 43 -172 q 81 -81 43 -122 q 174 -42 119 -42 q 263 -79 222 -42 q 304 -172 304 -117 q 267 -262 304 -221 q 174 -303 229 -303 q 82 -265 124 -303 q 43 -172 43 -226 m 124 735 l 217 735 l 217 568 l 314 568 l 314 475 l 217 475 l 217 318 l 124 318 l 124 475 l 19 475 l 19 568 l 124 568 l 124 735 z "},",":{"ha":347,"x_min":0,"x_max":347,"o":"m 0 1110 l 347 1110 l 347 1457 l 0 1457 l 0 1110 m 43 1283 q 81 1373 43 1332 q 174 1414 118 1414 q 263 1376 222 1414 q 304 1283 304 1339 q 267 1192 304 1233 q 174 1153 228 1153 q 82 1190 124 1153 q 43 1283 43 1229 m 0 -346 l 347 -346 l 347 1 l 0 1 l 0 -346 m 43 -172 q 81 -81 43 -122 q 174 -42 119 -42 q 263 -79 222 -42 q 304 -172 304 -117 q 267 -262 304 -221 q 174 -303 229 -303 q 82 -265 124 -303 q 43 -172 43 -226 m 133 38 l 133 246 l 239 246 l 239 175 q 204 90 239 129 q 133 38 178 54 z "},"-":{"ha":347,"x_min":0,"x_max":347,"o":"m 0 1110 l 347 1110 l 347 1457 l 0 1457 l 0 1110 m 43 1283 q 81 1373 43 1332 q 174 1414 118 1414 q 263 1376 222 1414 q 304 1283 304 1339 q 267 1192 304 1233 q 174 1153 228 1153 q 82 1190 124 1153 q 43 1283 43 1229 m 0 -346 l 347 -346 l 347 1 l 0 1 l 0 -346 m 43 -172 q 81 -81 43 -122 q 174 -42 119 -42 q 263 -79 222 -42 q 304 -172 304 -117 q 267 -262 304 -221 q 174 -303 229 -303 q 82 -265 124 -303 q 43 -172 43 -226 m 15 625 l 328 625 l 328 531 l 15 531 l 15 625 z "},".":{"ha":347,"x_min":0,"x_max":347,"o":"m 0 1110 l 347 1110 l 347 1457 l 0 1457 l 0 1110 m 43 1283 q 81 1373 43 1332 q 174 1414 118 1414 q 263 1376 222 1414 q 304 1283 304 1339 q 267 1192 304 1233 q 174 1153 228 1153 q 82 1190 124 1153 q 43 1283 43 1229 m 0 -346 l 347 -346 l 347 1 l 0 1 l 0 -346 m 43 -172 q 81 -81 43 -122 q 174 -42 119 -42 q 263 -79 222 -42 q 304 -172 304 -117 q 267 -262 304 -221 q 174 -303 229 -303 q 82 -265 124 -303 q 43 -172 43 -226 m 119 161 l 225 161 l 225 56 l 119 56 l 119 161 z "},"/":{"ha":347,"x_min":0,"x_max":347,"o":"m 0 1110 l 347 1110 l 347 1457 l 0 1457 l 0 1110 m 43 1283 q 81 1373 43 1332 q 174 1414 118 1414 q 263 1376 222 1414 q 304 1283 304 1339 q 267 1192 304 1233 q 174 1153 228 1153 q 82 1190 124 1153 q 43 1283 43 1229 m 0 -346 l 347 -346 l 347 1 l 0 1 l 0 -346 m 43 -172 q 81 -81 43 -122 q 174 -42 119 -42 q 263 -79 222 -42 q 304 -172 304 -117 q 267 -262 304 -221 q 174 -303 229 -303 q 82 -265 124 -303 q 43 -172 43 -226 m 333 1060 l 118 56 l 13 56 l 228 1060 l 333 1060 z "},":":{"ha":347,"x_min":0,"x_max":347,"o":"m 0 1110 l 347 1110 l 347 1457 l 0 1457 l 0 1110 m 43 1283 q 81 1373 43 1332 q 174 1414 118 1414 q 263 1376 222 1414 q 304 1283 304 1339 q 267 1192 304 1233 q 174 1153 228 1153 q 82 1190 124 1153 q 43 1283 43 1229 m 0 -346 l 347 -346 l 347 1 l 0 1 l 0 -346 m 43 -172 q 81 -81 43 -122 q 174 -42 119 -42 q 263 -79 222 -42 q 304 -172 304 -117 q 267 -262 304 -221 q 174 -303 229 -303 q 82 -265 124 -303 q 43 -172 43 -226 m 225 651 l 225 546 l 119 546 l 119 651 l 225 651 m 119 453 l 225 453 l 225 347 l 119 347 l 119 453 z "},";":{"ha":347,"x_min":0,"x_max":347,"o":"m 0 1110 l 347 1110 l 347 1457 l 0 1457 l 0 1110 m 43 1283 q 81 1373 43 1332 q 174 1414 118 1414 q 263 1376 222 1414 q 304 1283 304 1339 q 267 1192 304 1233 q 174 1153 228 1153 q 82 1190 124 1153 q 43 1283 43 1229 m 0 -346 l 347 -346 l 347 1 l 0 1 l 0 -346 m 43 -172 q 81 -81 43 -122 q 174 -42 119 -42 q 263 -79 222 -42 q 304 -172 304 -117 q 267 -262 304 -221 q 174 -303 229 -303 q 82 -265 124 -303 q 43 -172 43 -226 m 225 707 l 225 601 l 119 601 l 119 707 l 225 707 m 119 508 l 225 508 l 225 439 q 189 353 225 393 q 119 301 160 318 l 119 508 z "},"<":{"ha":694,"x_min":0,"x_max":694,"o":"m 0 1110 l 694 1110 l 694 1457 l 0 1457 l 0 1110 m 390 1283 q 428 1373 390 1332 q 521 1414 465 1414 q 610 1376 569 1414 q 651 1283 651 1339 q 614 1192 651 1233 q 521 1153 575 1153 q 429 1190 471 1153 q 390 1283 390 1229 m 43 1283 q 81 1373 43 1332 q 174 1414 118 1414 q 263 1376 222 1414 q 304 1283 304 1339 q 267 1192 304 1233 q 174 1153 228 1153 q 82 1190 124 1153 q 43 1283 43 1229 m 0 -346 l 694 -346 l 694 1 l 0 1 l 0 -346 m 390 -172 q 428 -81 390 -122 q 521 -42 467 -42 q 610 -79 569 -42 q 651 -172 651 -117 q 614 -262 651 -221 q 521 -303 576 -303 q 429 -265 471 -303 q 390 -172 390 -226 m 43 -172 q 81 -81 43 -122 q 174 -42 119 -42 q 263 -79 222 -42 q 304 -172 304 -117 q 267 -262 304 -221 q 174 -303 229 -303 q 82 -265 124 -303 q 43 -172 43 -226 m 622 942 l 622 828 l 201 524 l 324 469 l 476 403 l 549 368 l 622 331 l 622 219 l 57 474 l 57 574 l 622 942 z "},"=":{"ha":347,"x_min":0,"x_max":347,"o":"m 0 1110 l 347 1110 l 347 1457 l 0 1457 l 0 1110 m 43 1283 q 81 1373 43 1332 q 174 1414 118 1414 q 263 1376 222 1414 q 304 1283 304 1339 q 267 1192 304 1233 q 174 1153 228 1153 q 82 1190 124 1153 q 43 1283 43 1229 m 0 -346 l 347 -346 l 347 1 l 0 1 l 0 -346 m 43 -172 q 81 -81 43 -122 q 174 -42 119 -42 q 263 -79 222 -42 q 304 -172 304 -117 q 267 -262 304 -221 q 174 -303 229 -303 q 82 -265 124 -303 q 43 -172 43 -226 m 15 633 l 328 633 l 328 540 l 15 540 l 15 633 m 15 479 l 328 479 l 328 385 l 15 385 l 15 479 z "},">":{"ha":694,"x_min":0,"x_max":694,"o":"m 694 1110 l 0 1110 l 0 1457 l 694 1457 l 694 1110 m 649 474 l 83 219 l 83 331 l 151 364 q 229 403 186 385 l 382 469 l 449 500 l 504 522 l 83 828 l 83 942 l 649 574 l 649 474 m 694 -346 l 0 -346 l 0 1 l 694 1 l 694 -346 m 651 1283 q 613 1376 651 1338 q 521 1414 574 1414 q 428 1375 467 1414 q 390 1283 390 1336 q 430 1191 390 1229 q 521 1153 469 1153 q 613 1192 575 1153 q 651 1283 651 1232 m 304 1283 q 265 1376 304 1338 q 174 1414 226 1414 q 81 1375 119 1414 q 43 1283 43 1336 q 83 1191 43 1229 q 174 1153 122 1153 q 266 1192 228 1153 q 304 1283 304 1232 m 651 -172 q 613 -80 651 -118 q 521 -42 574 -42 q 428 -81 467 -42 q 390 -172 390 -121 q 430 -265 390 -226 q 521 -303 469 -303 q 613 -264 575 -303 q 651 -172 651 -225 m 304 -172 q 265 -80 304 -118 q 174 -42 226 -42 q 81 -81 119 -42 q 43 -172 43 -121 q 83 -265 43 -226 q 174 -303 122 -303 q 266 -264 228 -303 q 304 -172 304 -225 z "},"?":{"ha":694,"x_min":0,"x_max":694,"o":"m 0 1110 l 694 1110 l 694 1457 l 0 1457 l 0 1110 m 390 1283 q 428 1373 390 1332 q 521 1414 465 1414 q 610 1376 569 1414 q 651 1283 651 1339 q 614 1192 651 1233 q 521 1153 575 1153 q 429 1190 471 1153 q 390 1283 390 1229 m 43 1283 q 81 1373 43 1332 q 174 1414 118 1414 q 263 1376 222 1414 q 304 1283 304 1339 q 267 1192 304 1233 q 174 1153 228 1153 q 82 1190 124 1153 q 43 1283 43 1229 m 0 -346 l 694 -346 l 694 1 l 0 1 l 0 -346 m 390 -172 q 428 -81 390 -122 q 521 -42 467 -42 q 610 -79 569 -42 q 651 -172 651 -117 q 614 -262 651 -221 q 521 -303 576 -303 q 429 -265 471 -303 q 390 -172 390 -226 m 43 -172 q 81 -81 43 -122 q 174 -42 119 -42 q 263 -79 222 -42 q 304 -172 304 -117 q 267 -262 304 -221 q 174 -303 229 -303 q 82 -265 124 -303 q 43 -172 43 -226 m 331 1064 q 451 1010 411 1064 q 481 955 471 981 q 490 899 490 929 l 490 493 q 423 324 490 388 q 271 261 356 261 l 271 381 q 357 414 325 381 q 385 511 385 450 l 385 894 q 369 940 385 924 q 353 953 364 947 q 331 958 343 958 q 289 942 304 958 q 276 893 276 925 l 276 644 l 169 644 l 169 893 q 216 1015 169 967 q 331 1064 263 1064 m 376 168 l 376 63 l 271 63 l 271 168 l 376 168 z "},"@":{"ha":1028,"x_min":0,"x_max":1028,"o":"m 0 1110 l 1028 1110 l 1028 1457 l 0 1457 l 0 1110 m 390 1283 q 428 1373 390 1332 q 521 1414 465 1414 q 610 1376 569 1414 q 651 1283 651 1339 q 614 1192 651 1233 q 521 1153 575 1153 q 429 1190 471 1153 q 390 1283 390 1229 m 43 1283 q 81 1373 43 1332 q 174 1414 118 1414 q 263 1376 222 1414 q 304 1283 304 1339 q 267 1192 304 1233 q 174 1153 228 1153 q 82 1190 124 1153 q 43 1283 43 1229 m 0 -346 l 1028 -346 l 1028 1 l 0 1 l 0 -346 m 390 -172 q 428 -81 390 -122 q 521 -42 467 -42 q 610 -79 569 -42 q 651 -172 651 -117 q 614 -262 651 -221 q 528 -303 576 -303 q 476 -294 499 -303 q 429 -264 453 -285 q 390 -172 390 -228 m 43 -172 q 81 -81 43 -122 q 174 -42 119 -42 q 263 -79 222 -42 q 304 -172 304 -117 q 267 -262 304 -221 q 174 -303 229 -303 q 82 -265 124 -303 q 43 -172 43 -226 m 717 -172 q 754 -81 717 -122 q 847 -42 793 -42 q 937 -79 896 -42 q 978 -172 978 -117 q 940 -262 978 -221 q 854 -303 903 -303 q 802 -294 825 -303 q 756 -264 779 -285 q 717 -172 717 -228 m 724 1279 q 761 1369 724 1328 q 854 1410 799 1410 q 944 1372 903 1410 q 985 1279 985 1335 q 947 1188 985 1229 q 861 1149 908 1149 q 809 1157 833 1149 q 763 1188 785 1165 q 724 1279 724 1224 m 536 1056 q 864 939 731 1056 q 962 814 926 885 q 997 661 997 743 q 967 502 997 572 q 883 382 938 432 q 678 283 778 283 q 611 308 632 283 q 590 364 590 333 q 522 313 567 343 q 421 283 478 283 q 293 342 347 283 q 251 408 265 371 q 238 490 238 444 q 311 718 238 607 q 404 803 347 772 q 532 835 461 835 q 631 805 594 835 q 689 736 668 775 l 713 808 l 806 808 l 763 657 l 731 544 l 711 465 l 706 417 q 710 388 706 399 q 733 375 715 376 q 850 450 793 375 q 892 533 878 489 q 907 628 907 578 q 808 868 907 765 q 691 943 761 917 q 536 969 621 969 q 247 853 368 969 q 157 719 192 797 q 128 553 128 649 q 251 255 128 372 q 547 138 374 138 q 710 173 631 138 q 860 278 790 208 l 914 224 q 765 107 865 160 q 543 54 664 54 q 182 194 331 54 q 69 353 108 264 q 29 557 29 442 q 66 748 29 661 q 174 906 103 835 q 338 1016 244 976 q 536 1056 432 1056 m 539 739 q 462 717 497 739 q 399 656 426 694 q 347 511 347 576 q 378 419 347 454 q 460 383 408 383 q 590 459 532 383 q 649 611 649 535 q 617 699 649 661 q 539 739 588 739 z "},"A":{"ha":694,"x_min":0,"x_max":694,"o":"m 0 1110 l 694 1110 l 694 1457 l 0 1457 l 0 1110 m 390 1283 q 428 1373 390 1332 q 521 1414 465 1414 q 610 1376 569 1414 q 651 1283 651 1339 q 614 1192 651 1233 q 521 1153 575 1153 q 429 1190 471 1153 q 390 1283 390 1229 m 43 1283 q 81 1373 43 1332 q 174 1414 118 1414 q 263 1376 222 1414 q 304 1283 304 1339 q 267 1192 304 1233 q 174 1153 228 1153 q 82 1190 124 1153 q 43 1283 43 1229 m 0 -346 l 694 -346 l 694 1 l 0 1 l 0 -346 m 390 -172 q 428 -81 390 -122 q 521 -42 467 -42 q 610 -79 569 -42 q 651 -172 651 -117 q 614 -262 651 -221 q 521 -303 576 -303 q 429 -265 471 -303 q 390 -172 390 -226 m 43 -172 q 81 -81 43 -122 q 174 -42 119 -42 q 263 -79 222 -42 q 304 -172 304 -117 q 267 -262 304 -221 q 174 -303 229 -303 q 82 -265 124 -303 q 43 -172 43 -226 m 360 1068 q 488 1013 446 1068 q 529 883 529 958 l 529 67 l 424 67 l 424 269 l 292 269 l 292 67 l 186 67 l 186 269 l 94 269 l 35 367 l 186 367 l 186 875 q 232 1014 186 960 q 360 1068 278 1068 m 358 963 q 306 939 324 963 q 292 876 292 914 l 292 367 l 424 367 l 424 875 q 411 938 424 913 q 358 963 396 963 z "},"B":{"ha":694,"x_min":0,"x_max":694,"o":"m 0 1110 l 694 1110 l 694 1457 l 0 1457 l 0 1110 m 390 1283 q 428 1373 390 1332 q 521 1414 465 1414 q 610 1376 569 1414 q 651 1283 651 1339 q 614 1192 651 1233 q 521 1153 575 1153 q 429 1190 471 1153 q 390 1283 390 1229 m 43 1283 q 81 1373 43 1332 q 174 1414 118 1414 q 263 1376 222 1414 q 304 1283 304 1339 q 267 1192 304 1233 q 174 1153 228 1153 q 82 1190 124 1153 q 43 1283 43 1229 m 0 -346 l 694 -346 l 694 1 l 0 1 l 0 -346 m 390 -172 q 428 -81 390 -122 q 521 -42 467 -42 q 610 -79 569 -42 q 651 -172 651 -117 q 614 -262 651 -221 q 521 -303 576 -303 q 429 -265 471 -303 q 390 -172 390 -226 m 43 -172 q 81 -81 43 -122 q 174 -42 119 -42 q 263 -79 222 -42 q 304 -172 304 -117 q 267 -262 304 -221 q 174 -303 229 -303 q 82 -265 124 -303 q 43 -172 43 -226 m 210 1074 q 468 902 376 1024 q 560 635 560 781 q 558 586 560 603 q 549 535 557 569 q 521 463 542 500 q 449 357 488 392 q 530 317 500 346 q 560 240 560 289 l 560 186 q 515 92 560 128 q 396 56 471 56 l 210 56 l 210 258 l 118 258 l 58 356 l 210 356 l 210 1074 m 315 903 l 315 356 q 406 450 360 385 q 442 526 429 483 q 454 625 454 569 q 422 770 454 696 q 315 903 390 844 m 315 258 l 315 161 l 407 161 q 442 169 431 161 q 454 208 454 178 q 443 247 454 236 q 401 258 432 258 l 315 258 z "},"C":{"ha":694,"x_min":0,"x_max":694,"o":"m 0 1110 l 694 1110 l 694 1457 l 0 1457 l 0 1110 m 390 1283 q 428 1373 390 1332 q 521 1414 465 1414 q 610 1376 569 1414 q 651 1283 651 1339 q 614 1192 651 1233 q 521 1153 575 1153 q 429 1190 471 1153 q 390 1283 390 1229 m 43 1283 q 81 1373 43 1332 q 174 1414 118 1414 q 263 1376 222 1414 q 304 1283 304 1339 q 267 1192 304 1233 q 174 1153 228 1153 q 82 1190 124 1153 q 43 1283 43 1229 m 0 -346 l 694 -346 l 694 1 l 0 1 l 0 -346 m 390 -172 q 428 -81 390 -122 q 521 -42 467 -42 q 610 -79 569 -42 q 651 -172 651 -117 q 614 -262 651 -221 q 521 -303 576 -303 q 429 -265 471 -303 q 390 -172 390 -226 m 43 -172 q 81 -81 43 -122 q 174 -42 119 -42 q 263 -79 222 -42 q 304 -172 304 -117 q 267 -262 304 -221 q 174 -303 229 -303 q 82 -265 124 -303 q 43 -172 43 -226 m 471 1039 q 308 849 382 969 q 249 714 272 788 q 229 553 229 640 q 297 267 229 386 q 469 63 364 149 l 317 63 q 190 250 257 118 q 141 391 158 314 q 124 554 124 468 q 144 723 124 649 q 203 869 164 797 q 317 1039 272 999 l 471 1039 z "},"D":{"ha":694,"x_min":0,"x_max":694,"o":"m 0 1110 l 694 1110 l 694 1457 l 0 1457 l 0 1110 m 390 1283 q 428 1373 390 1332 q 521 1414 465 1414 q 610 1376 569 1414 q 651 1283 651 1339 q 614 1192 651 1233 q 521 1153 575 1153 q 429 1190 471 1153 q 390 1283 390 1229 m 43 1283 q 81 1373 43 1332 q 174 1414 118 1414 q 263 1376 222 1414 q 304 1283 304 1339 q 267 1192 304 1233 q 174 1153 228 1153 q 82 1190 124 1153 q 43 1283 43 1229 m 0 -346 l 694 -346 l 694 1 l 0 1 l 0 -346 m 390 -172 q 428 -81 390 -122 q 521 -42 467 -42 q 610 -79 569 -42 q 651 -172 651 -117 q 614 -262 651 -221 q 521 -303 576 -303 q 429 -265 471 -303 q 390 -172 390 -226 m 43 -172 q 81 -81 43 -122 q 174 -42 119 -42 q 263 -79 222 -42 q 304 -172 304 -117 q 267 -262 304 -221 q 174 -303 229 -303 q 82 -265 124 -303 q 43 -172 43 -226 m 165 1079 q 424 888 315 1024 q 504 740 476 822 q 532 558 532 657 q 442 251 532 389 q 165 36 351 114 l 165 1079 m 271 889 l 271 217 q 381 363 336 276 q 415 453 403 406 q 426 553 426 501 q 389 724 426 635 q 271 889 351 813 z "},"E":{"ha":694,"x_min":0,"x_max":694,"o":"m 0 1110 l 694 1110 l 694 1457 l 0 1457 l 0 1110 m 390 1283 q 428 1373 390 1332 q 521 1414 465 1414 q 610 1376 569 1414 q 651 1283 651 1339 q 614 1192 651 1233 q 521 1153 575 1153 q 429 1190 471 1153 q 390 1283 390 1229 m 43 1283 q 81 1373 43 1332 q 174 1414 118 1414 q 263 1376 222 1414 q 304 1283 304 1339 q 267 1192 304 1233 q 174 1153 228 1153 q 82 1190 124 1153 q 43 1283 43 1229 m 0 -346 l 694 -346 l 694 1 l 0 1 l 0 -346 m 390 -172 q 428 -81 390 -122 q 521 -42 467 -42 q 610 -79 569 -42 q 651 -172 651 -117 q 614 -262 651 -221 q 521 -303 576 -303 q 429 -265 471 -303 q 390 -172 390 -226 m 43 -172 q 81 -81 43 -122 q 174 -42 119 -42 q 263 -79 222 -42 q 304 -172 304 -117 q 267 -262 304 -221 q 174 -303 229 -303 q 82 -265 124 -303 q 43 -172 43 -226 m 203 1046 l 507 1046 l 507 939 l 308 939 l 308 369 l 507 369 l 507 272 l 308 272 l 308 214 q 319 182 308 192 q 358 175 331 175 l 507 175 l 507 69 l 351 69 q 242 107 281 69 q 203 215 203 144 l 203 272 l 111 272 l 51 369 l 203 369 l 203 1046 z "},"F":{"ha":694,"x_min":0,"x_max":694,"o":"m 0 1110 l 694 1110 l 694 1457 l 0 1457 l 0 1110 m 390 1283 q 428 1373 390 1332 q 521 1414 465 1414 q 610 1376 569 1414 q 651 1283 651 1339 q 614 1192 651 1233 q 521 1153 575 1153 q 429 1190 471 1153 q 390 1283 390 1229 m 43 1283 q 81 1373 43 1332 q 174 1414 118 1414 q 263 1376 222 1414 q 304 1283 304 1339 q 267 1192 304 1233 q 174 1153 228 1153 q 82 1190 124 1153 q 43 1283 43 1229 m 0 -346 l 694 -346 l 694 1 l 0 1 l 0 -346 m 390 -172 q 428 -81 390 -122 q 521 -42 467 -42 q 610 -79 569 -42 q 651 -172 651 -117 q 614 -262 651 -221 q 521 -303 576 -303 q 429 -265 471 -303 q 390 -172 390 -226 m 43 -172 q 81 -81 43 -122 q 174 -42 119 -42 q 263 -79 222 -42 q 304 -172 304 -117 q 267 -262 304 -221 q 174 -303 229 -303 q 82 -265 124 -303 q 43 -172 43 -226 m 238 1046 l 542 1046 l 542 939 l 343 939 l 343 369 l 542 369 l 542 272 l 343 272 l 343 69 l 238 69 l 238 272 l 146 272 l 86 369 l 238 369 l 238 1046 z "},"G":{"ha":694,"x_min":0,"x_max":694,"o":"m 0 1110 l 694 1110 l 694 1457 l 0 1457 l 0 1110 m 390 1283 q 428 1373 390 1332 q 521 1414 465 1414 q 610 1376 569 1414 q 651 1283 651 1339 q 614 1192 651 1233 q 521 1153 575 1153 q 429 1190 471 1153 q 390 1283 390 1229 m 43 1283 q 81 1373 43 1332 q 174 1414 118 1414 q 263 1376 222 1414 q 304 1283 304 1339 q 267 1192 304 1233 q 174 1153 228 1153 q 82 1190 124 1153 q 43 1283 43 1229 m 0 -346 l 694 -346 l 694 1 l 0 1 l 0 -346 m 390 -172 q 428 -81 390 -122 q 521 -42 467 -42 q 610 -79 569 -42 q 651 -172 651 -117 q 614 -262 651 -221 q 521 -303 576 -303 q 429 -265 471 -303 q 390 -172 390 -226 m 43 -172 q 81 -81 43 -122 q 174 -42 119 -42 q 263 -79 222 -42 q 304 -172 304 -117 q 267 -262 304 -221 q 174 -303 229 -303 q 82 -265 124 -303 q 43 -172 43 -226 m 499 1079 l 499 967 q 303 808 376 913 q 231 561 231 703 q 277 351 231 435 q 393 214 324 268 l 393 550 l 499 550 l 499 36 q 224 238 324 99 q 149 389 174 308 q 125 560 125 469 q 233 883 125 746 q 499 1079 333 1011 z "},"H":{"ha":694,"x_min":0,"x_max":694,"o":"m 0 1110 l 694 1110 l 694 1457 l 0 1457 l 0 1110 m 390 1283 q 428 1373 390 1332 q 521 1414 465 1414 q 610 1376 569 1414 q 651 1283 651 1339 q 614 1192 651 1233 q 521 1153 575 1153 q 429 1190 471 1153 q 390 1283 390 1229 m 43 1283 q 81 1373 43 1332 q 174 1414 118 1414 q 263 1376 222 1414 q 304 1283 304 1339 q 267 1192 304 1233 q 174 1153 228 1153 q 82 1190 124 1153 q 43 1283 43 1229 m 0 -346 l 694 -346 l 694 1 l 0 1 l 0 -346 m 390 -172 q 428 -81 390 -122 q 521 -42 467 -42 q 610 -79 569 -42 q 651 -172 651 -117 q 614 -262 651 -221 q 521 -303 576 -303 q 429 -265 471 -303 q 390 -172 390 -226 m 43 -172 q 81 -81 43 -122 q 174 -42 119 -42 q 263 -79 222 -42 q 304 -172 304 -117 q 267 -262 304 -221 q 174 -303 229 -303 q 82 -265 124 -303 q 43 -172 43 -226 m 186 1046 l 292 1046 l 292 369 l 431 369 l 431 1046 l 536 1046 l 536 69 l 431 69 l 431 272 l 292 272 l 292 69 l 186 69 l 186 272 l 94 272 l 35 369 l 186 369 l 186 1046 z "},"I":{"ha":347,"x_min":0,"x_max":347,"o":"m 0 1110 l 347 1110 l 347 1457 l 0 1457 l 0 1110 m 43 1283 q 81 1373 43 1332 q 174 1414 118 1414 q 263 1376 222 1414 q 304 1283 304 1339 q 267 1192 304 1233 q 174 1153 228 1153 q 82 1190 124 1153 q 43 1283 43 1229 m 0 -346 l 347 -346 l 347 1 l 0 1 l 0 -346 m 43 -172 q 81 -81 43 -122 q 174 -42 119 -42 q 263 -79 222 -42 q 304 -172 304 -117 q 267 -262 304 -221 q 174 -303 229 -303 q 82 -265 124 -303 q 43 -172 43 -226 m 215 1053 l 215 76 l 110 76 l 110 1053 l 215 1053 z "},"J":{"ha":694,"x_min":0,"x_max":694,"o":"m 0 1110 l 694 1110 l 694 1457 l 0 1457 l 0 1110 m 390 1283 q 428 1373 390 1332 q 521 1414 465 1414 q 610 1376 569 1414 q 651 1283 651 1339 q 614 1192 651 1233 q 521 1153 575 1153 q 429 1190 471 1153 q 390 1283 390 1229 m 43 1283 q 81 1373 43 1332 q 174 1414 118 1414 q 263 1376 222 1414 q 304 1283 304 1339 q 267 1192 304 1233 q 174 1153 228 1153 q 82 1190 124 1153 q 43 1283 43 1229 m 0 -346 l 694 -346 l 694 1 l 0 1 l 0 -346 m 390 -172 q 428 -81 390 -122 q 521 -42 467 -42 q 610 -79 569 -42 q 651 -172 651 -117 q 614 -262 651 -221 q 521 -303 576 -303 q 429 -265 471 -303 q 390 -172 390 -226 m 43 -172 q 81 -81 43 -122 q 174 -42 119 -42 q 263 -79 222 -42 q 304 -172 304 -117 q 267 -262 304 -221 q 174 -303 229 -303 q 82 -265 124 -303 q 43 -172 43 -226 m 458 1046 l 458 393 q 439 259 458 318 q 375 151 419 200 q 186 46 296 68 l 186 154 q 310 233 267 171 q 353 394 353 294 l 353 1046 l 458 1046 z "},"K":{"ha":694,"x_min":0,"x_max":694,"o":"m 0 1110 l 694 1110 l 694 1457 l 0 1457 l 0 1110 m 390 1283 q 428 1373 390 1332 q 521 1414 465 1414 q 610 1376 569 1414 q 651 1283 651 1339 q 614 1192 651 1233 q 521 1153 575 1153 q 429 1190 471 1153 q 390 1283 390 1229 m 43 1283 q 81 1373 43 1332 q 174 1414 118 1414 q 263 1376 222 1414 q 304 1283 304 1339 q 267 1192 304 1233 q 174 1153 228 1153 q 82 1190 124 1153 q 43 1283 43 1229 m 0 -346 l 694 -346 l 694 1 l 0 1 l 0 -346 m 390 -172 q 428 -81 390 -122 q 521 -42 467 -42 q 610 -79 569 -42 q 651 -172 651 -117 q 614 -262 651 -221 q 521 -303 576 -303 q 429 -265 471 -303 q 390 -172 390 -226 m 43 -172 q 81 -81 43 -122 q 174 -42 119 -42 q 263 -79 222 -42 q 304 -172 304 -117 q 267 -262 304 -221 q 174 -303 229 -303 q 82 -265 124 -303 q 43 -172 43 -226 m 288 1046 l 288 369 q 392 488 350 411 q 424 569 413 526 q 435 665 435 613 l 435 1046 l 542 1046 l 542 671 q 516 499 542 571 q 435 374 490 428 q 515 320 488 356 q 542 235 542 285 l 542 69 l 435 69 l 435 226 q 426 262 435 251 q 389 272 417 272 l 288 272 l 288 69 l 182 69 l 182 272 l 90 272 l 31 369 l 182 369 l 182 1046 l 288 1046 z "},"L":{"ha":694,"x_min":0,"x_max":694,"o":"m 0 1110 l 694 1110 l 694 1457 l 0 1457 l 0 1110 m 390 1283 q 428 1373 390 1332 q 521 1414 465 1414 q 610 1376 569 1414 q 651 1283 651 1339 q 614 1192 651 1233 q 521 1153 575 1153 q 429 1190 471 1153 q 390 1283 390 1229 m 43 1283 q 81 1373 43 1332 q 174 1414 118 1414 q 263 1376 222 1414 q 304 1283 304 1339 q 267 1192 304 1233 q 174 1153 228 1153 q 82 1190 124 1153 q 43 1283 43 1229 m 0 -346 l 694 -346 l 694 1 l 0 1 l 0 -346 m 390 -172 q 428 -81 390 -122 q 521 -42 467 -42 q 610 -79 569 -42 q 651 -172 651 -117 q 614 -262 651 -221 q 521 -303 576 -303 q 429 -265 471 -303 q 390 -172 390 -226 m 43 -172 q 81 -81 43 -122 q 174 -42 119 -42 q 263 -79 222 -42 q 304 -172 304 -117 q 267 -262 304 -221 q 174 -303 229 -303 q 82 -265 124 -303 q 43 -172 43 -226 m 325 1046 l 325 243 q 336 187 325 199 q 390 175 347 175 l 507 175 l 507 69 l 378 69 q 254 114 293 69 q 218 232 218 161 l 218 1046 l 325 1046 z "},"M":{"ha":1028,"x_min":0,"x_max":1028,"o":"m 0 1110 l 1028 1110 l 1028 1457 l 0 1457 l 0 1110 m 390 1283 q 428 1373 390 1332 q 521 1414 465 1414 q 610 1376 569 1414 q 651 1283 651 1339 q 614 1192 651 1233 q 521 1153 575 1153 q 429 1190 471 1153 q 390 1283 390 1229 m 43 1283 q 81 1373 43 1332 q 174 1414 118 1414 q 263 1376 222 1414 q 304 1283 304 1339 q 267 1192 304 1233 q 174 1153 228 1153 q 82 1190 124 1153 q 43 1283 43 1229 m 0 -346 l 1028 -346 l 1028 1 l 0 1 l 0 -346 m 390 -172 q 428 -81 390 -122 q 521 -42 467 -42 q 610 -79 569 -42 q 651 -172 651 -117 q 614 -262 651 -221 q 528 -303 576 -303 q 476 -294 499 -303 q 429 -264 453 -285 q 390 -172 390 -228 m 43 -172 q 81 -81 43 -122 q 174 -42 119 -42 q 263 -79 222 -42 q 304 -172 304 -117 q 267 -262 304 -221 q 174 -303 229 -303 q 82 -265 124 -303 q 43 -172 43 -226 m 397 1057 q 463 1043 435 1057 q 486 1032 479 1039 l 513 1013 q 563 1042 531 1028 q 629 1057 594 1057 q 744 1013 700 1057 q 789 890 789 968 l 789 56 l 683 56 l 683 886 q 668 935 683 918 q 626 951 653 951 q 581 933 597 951 q 567 885 567 915 l 567 56 l 461 56 l 461 885 q 447 931 461 913 l 428 946 l 403 951 q 360 932 375 951 q 344 888 344 917 l 344 56 l 239 56 l 239 892 q 282 1010 239 963 q 397 1057 325 1057 m 717 -172 q 754 -81 717 -122 q 847 -42 793 -42 q 937 -79 896 -42 q 978 -172 978 -117 q 940 -262 978 -221 q 854 -303 903 -303 q 802 -294 825 -303 q 756 -264 779 -285 q 717 -172 717 -228 m 724 1279 q 761 1369 724 1328 q 854 1410 799 1410 q 944 1372 903 1410 q 985 1279 985 1335 q 947 1188 985 1229 q 861 1149 908 1149 q 809 1157 833 1149 q 763 1188 785 1165 q 724 1279 724 1224 z "},"N":{"ha":694,"x_min":0,"x_max":694,"o":"m 0 1110 l 694 1110 l 694 1457 l 0 1457 l 0 1110 m 390 1283 q 428 1373 390 1332 q 521 1414 465 1414 q 610 1376 569 1414 q 651 1283 651 1339 q 614 1192 651 1233 q 521 1153 575 1153 q 429 1190 471 1153 q 390 1283 390 1229 m 43 1283 q 81 1373 43 1332 q 174 1414 118 1414 q 263 1376 222 1414 q 304 1283 304 1339 q 267 1192 304 1233 q 174 1153 228 1153 q 82 1190 124 1153 q 43 1283 43 1229 m 0 -346 l 694 -346 l 694 1 l 0 1 l 0 -346 m 390 -172 q 428 -81 390 -122 q 521 -42 467 -42 q 610 -79 569 -42 q 651 -172 651 -117 q 614 -262 651 -221 q 521 -303 576 -303 q 429 -265 471 -303 q 390 -172 390 -226 m 43 -172 q 81 -81 43 -122 q 174 -42 119 -42 q 263 -79 222 -42 q 304 -172 304 -117 q 267 -262 304 -221 q 174 -303 229 -303 q 82 -265 124 -303 q 43 -172 43 -226 m 171 1069 l 404 664 l 404 1018 l 511 1018 l 511 42 l 404 42 l 404 471 l 276 679 l 276 42 l 171 42 l 171 1069 z "},"O":{"ha":694,"x_min":0,"x_max":694,"o":"m 0 1110 l 694 1110 l 694 1457 l 0 1457 l 0 1110 m 390 1283 q 428 1373 390 1332 q 521 1414 465 1414 q 610 1376 569 1414 q 651 1283 651 1339 q 614 1192 651 1233 q 521 1153 575 1153 q 429 1190 471 1153 q 390 1283 390 1229 m 43 1283 q 81 1373 43 1332 q 174 1414 118 1414 q 263 1376 222 1414 q 304 1283 304 1339 q 267 1192 304 1233 q 174 1153 228 1153 q 82 1190 124 1153 q 43 1283 43 1229 m 0 -346 l 694 -346 l 694 1 l 0 1 l 0 -346 m 390 -172 q 428 -81 390 -122 q 521 -42 467 -42 q 610 -79 569 -42 q 651 -172 651 -117 q 614 -262 651 -221 q 521 -303 576 -303 q 429 -265 471 -303 q 390 -172 390 -226 m 43 -172 q 81 -81 43 -122 q 174 -42 119 -42 q 263 -79 222 -42 q 304 -172 304 -117 q 267 -262 304 -221 q 174 -303 229 -303 q 82 -265 124 -303 q 43 -172 43 -226 m 342 1071 q 469 1018 422 1071 q 515 897 515 965 l 515 213 q 464 89 515 135 q 342 46 413 46 q 212 94 258 46 q 165 210 165 142 l 165 899 q 216 1024 165 978 q 342 1071 267 1071 m 340 965 q 288 944 306 965 q 271 879 271 922 l 271 236 q 287 173 271 193 q 343 153 303 153 q 394 174 379 153 q 410 238 410 196 l 410 883 q 392 945 410 925 q 340 965 375 965 z "},"P":{"ha":694,"x_min":0,"x_max":694,"o":"m 0 1110 l 694 1110 l 694 1457 l 0 1457 l 0 1110 m 390 1283 q 428 1373 390 1332 q 521 1414 465 1414 q 610 1376 569 1414 q 651 1283 651 1339 q 614 1192 651 1233 q 521 1153 575 1153 q 429 1190 471 1153 q 390 1283 390 1229 m 43 1283 q 81 1373 43 1332 q 174 1414 118 1414 q 263 1376 222 1414 q 304 1283 304 1339 q 267 1192 304 1233 q 174 1153 228 1153 q 82 1190 124 1153 q 43 1283 43 1229 m 0 -346 l 694 -346 l 694 1 l 0 1 l 0 -346 m 390 -172 q 428 -81 390 -122 q 521 -42 467 -42 q 610 -79 569 -42 q 651 -172 651 -117 q 614 -262 651 -221 q 521 -303 576 -303 q 429 -265 471 -303 q 390 -172 390 -226 m 43 -172 q 81 -81 43 -122 q 174 -42 119 -42 q 263 -79 222 -42 q 304 -172 304 -117 q 267 -262 304 -221 q 174 -303 229 -303 q 82 -265 124 -303 q 43 -172 43 -226 m 179 1074 q 431 915 331 1028 q 504 790 479 860 q 529 638 529 721 q 525 567 529 599 q 510 500 521 535 q 453 386 490 436 q 285 238 383 290 l 285 56 l 179 56 l 179 1074 m 285 360 q 374 454 325 385 q 424 625 424 524 q 380 797 424 725 q 285 903 336 868 l 285 360 z "},"Q":{"ha":694,"x_min":0,"x_max":694,"o":"m 0 1110 l 694 1110 l 694 1457 l 0 1457 l 0 1110 m 390 1283 q 428 1373 390 1332 q 521 1414 465 1414 q 610 1376 569 1414 q 651 1283 651 1339 q 614 1192 651 1233 q 521 1153 575 1153 q 429 1190 471 1153 q 390 1283 390 1229 m 43 1283 q 81 1373 43 1332 q 174 1414 118 1414 q 263 1376 222 1414 q 304 1283 304 1339 q 267 1192 304 1233 q 174 1153 228 1153 q 82 1190 124 1153 q 43 1283 43 1229 m 0 -346 l 694 -346 l 694 1 l 0 1 l 0 -346 m 390 -172 q 428 -81 390 -122 q 521 -42 467 -42 q 610 -79 569 -42 q 651 -172 651 -117 q 614 -262 651 -221 q 521 -303 576 -303 q 429 -265 471 -303 q 390 -172 390 -226 m 43 -172 q 81 -81 43 -122 q 174 -42 119 -42 q 263 -79 222 -42 q 304 -172 304 -117 q 267 -262 304 -221 q 174 -303 229 -303 q 82 -265 124 -303 q 43 -172 43 -226 m 342 1064 q 469 1010 422 1064 q 517 872 517 957 l 517 460 q 498 341 517 392 q 443 254 479 290 l 419 236 l 400 219 q 453 175 431 188 q 517 158 474 167 l 517 53 q 415 75 461 53 q 343 121 371 93 q 293 160 319 147 q 281 163 290 161 q 254 165 272 165 l 219 167 l 219 272 q 365 329 319 272 q 410 468 410 386 l 410 871 q 393 936 410 911 q 342 958 375 958 q 292 939 311 958 q 272 872 272 919 l 272 365 l 165 365 l 165 874 q 214 1013 165 963 q 342 1064 263 1064 z "},"R":{"ha":694,"x_min":0,"x_max":694,"o":"m 0 1110 l 694 1110 l 694 1457 l 0 1457 l 0 1110 m 390 1283 q 428 1373 390 1332 q 521 1414 465 1414 q 610 1376 569 1414 q 651 1283 651 1339 q 614 1192 651 1233 q 521 1153 575 1153 q 429 1190 471 1153 q 390 1283 390 1229 m 43 1283 q 81 1373 43 1332 q 174 1414 118 1414 q 263 1376 222 1414 q 304 1283 304 1339 q 267 1192 304 1233 q 174 1153 228 1153 q 82 1190 124 1153 q 43 1283 43 1229 m 0 -346 l 694 -346 l 694 1 l 0 1 l 0 -346 m 390 -172 q 428 -81 390 -122 q 521 -42 467 -42 q 610 -79 569 -42 q 651 -172 651 -117 q 614 -262 651 -221 q 521 -303 576 -303 q 429 -265 471 -303 q 390 -172 390 -226 m 43 -172 q 81 -81 43 -122 q 174 -42 119 -42 q 263 -79 222 -42 q 304 -172 304 -117 q 267 -262 304 -221 q 174 -303 229 -303 q 82 -265 124 -303 q 43 -172 43 -226 m 175 1074 q 425 917 326 1032 q 498 788 471 861 q 525 636 525 715 q 497 489 525 554 q 414 356 475 422 q 498 322 471 356 q 525 233 525 288 l 525 56 l 419 56 l 419 215 q 409 247 419 239 q 375 258 399 256 l 281 258 l 281 56 l 175 56 l 175 258 l 83 258 l 24 356 l 175 356 l 175 1074 m 281 356 q 372 453 328 383 q 407 528 394 485 q 419 625 419 571 q 417 681 419 667 q 408 718 415 696 q 374 799 397 758 q 281 903 329 871 l 281 356 z "},"S":{"ha":694,"x_min":0,"x_max":694,"o":"m 0 1110 l 694 1110 l 694 1457 l 0 1457 l 0 1110 m 390 1283 q 428 1373 390 1332 q 521 1414 465 1414 q 610 1376 569 1414 q 651 1283 651 1339 q 614 1192 651 1233 q 521 1153 575 1153 q 429 1190 471 1153 q 390 1283 390 1229 m 43 1283 q 81 1373 43 1332 q 174 1414 118 1414 q 263 1376 222 1414 q 304 1283 304 1339 q 267 1192 304 1233 q 174 1153 228 1153 q 82 1190 124 1153 q 43 1283 43 1229 m 0 -346 l 694 -346 l 694 1 l 0 1 l 0 -346 m 390 -172 q 428 -81 390 -122 q 521 -42 467 -42 q 610 -79 569 -42 q 651 -172 651 -117 q 614 -262 651 -221 q 521 -303 576 -303 q 429 -265 471 -303 q 390 -172 390 -226 m 43 -172 q 81 -81 43 -122 q 174 -42 119 -42 q 263 -79 222 -42 q 304 -172 304 -117 q 267 -262 304 -221 q 174 -303 229 -303 q 82 -265 124 -303 q 43 -172 43 -226 m 476 1039 q 363 863 392 950 q 344 786 351 826 l 339 722 q 356 611 339 664 l 368 571 l 394 513 q 415 468 407 489 q 435 415 424 447 q 454 303 454 364 q 450 230 454 261 q 435 168 446 199 q 392 63 418 107 l 257 63 q 324 174 300 113 q 349 299 349 235 q 344 351 349 326 q 329 400 340 375 l 311 446 q 289 492 301 471 l 268 539 l 249 593 q 232 725 232 650 q 232 765 232 749 q 238 813 232 782 q 260 897 242 851 q 291 971 272 935 q 333 1039 310 1007 l 476 1039 z "},"T":{"ha":694,"x_min":0,"x_max":694,"o":"m 0 1110 l 694 1110 l 694 1457 l 0 1457 l 0 1110 m 390 1283 q 428 1373 390 1332 q 521 1414 465 1414 q 610 1376 569 1414 q 651 1283 651 1339 q 614 1192 651 1233 q 521 1153 575 1153 q 429 1190 471 1153 q 390 1283 390 1229 m 43 1283 q 81 1373 43 1332 q 174 1414 118 1414 q 263 1376 222 1414 q 304 1283 304 1339 q 267 1192 304 1233 q 174 1153 228 1153 q 82 1190 124 1153 q 43 1283 43 1229 m 0 -346 l 694 -346 l 694 1 l 0 1 l 0 -346 m 390 -172 q 428 -81 390 -122 q 521 -42 467 -42 q 610 -79 569 -42 q 651 -172 651 -117 q 614 -262 651 -221 q 521 -303 576 -303 q 429 -265 471 -303 q 390 -172 390 -226 m 43 -172 q 81 -81 43 -122 q 174 -42 119 -42 q 263 -79 222 -42 q 304 -172 304 -117 q 267 -262 304 -221 q 174 -303 229 -303 q 82 -265 124 -303 q 43 -172 43 -226 m 511 1039 l 511 932 l 394 932 l 394 63 l 288 63 l 288 932 l 172 932 l 172 1039 l 511 1039 z "},"U":{"ha":694,"x_min":0,"x_max":694,"o":"m 0 1110 l 694 1110 l 694 1457 l 0 1457 l 0 1110 m 390 1283 q 428 1373 390 1332 q 521 1414 465 1414 q 610 1376 569 1414 q 651 1283 651 1339 q 614 1192 651 1233 q 521 1153 575 1153 q 429 1190 471 1153 q 390 1283 390 1229 m 43 1283 q 81 1373 43 1332 q 174 1414 118 1414 q 263 1376 222 1414 q 304 1283 304 1339 q 267 1192 304 1233 q 174 1153 228 1153 q 82 1190 124 1153 q 43 1283 43 1229 m 0 -346 l 694 -346 l 694 1 l 0 1 l 0 -346 m 390 -172 q 428 -81 390 -122 q 521 -42 467 -42 q 610 -79 569 -42 q 651 -172 651 -117 q 614 -262 651 -221 q 521 -303 576 -303 q 429 -265 471 -303 q 390 -172 390 -226 m 43 -172 q 81 -81 43 -122 q 174 -42 119 -42 q 263 -79 222 -42 q 304 -172 304 -117 q 267 -262 304 -221 q 174 -303 229 -303 q 82 -265 124 -303 q 43 -172 43 -226 m 521 1046 l 521 222 q 467 88 521 132 q 349 46 413 46 q 224 90 272 46 q 175 229 175 135 l 175 1046 l 281 1046 l 281 236 q 296 171 281 194 q 349 150 313 150 q 397 170 379 150 q 415 235 415 190 l 415 1046 l 521 1046 z "},"V":{"ha":694,"x_min":0,"x_max":694,"o":"m 0 1110 l 694 1110 l 694 1457 l 0 1457 l 0 1110 m 390 1283 q 428 1373 390 1332 q 521 1414 465 1414 q 610 1376 569 1414 q 651 1283 651 1339 q 614 1192 651 1233 q 521 1153 575 1153 q 429 1190 471 1153 q 390 1283 390 1229 m 43 1283 q 81 1373 43 1332 q 174 1414 118 1414 q 263 1376 222 1414 q 304 1283 304 1339 q 267 1192 304 1233 q 174 1153 228 1153 q 82 1190 124 1153 q 43 1283 43 1229 m 0 -346 l 694 -346 l 694 1 l 0 1 l 0 -346 m 390 -172 q 428 -81 390 -122 q 521 -42 467 -42 q 610 -79 569 -42 q 651 -172 651 -117 q 614 -262 651 -221 q 521 -303 576 -303 q 429 -265 471 -303 q 390 -172 390 -226 m 43 -172 q 81 -81 43 -122 q 174 -42 119 -42 q 263 -79 222 -42 q 304 -172 304 -117 q 267 -262 304 -221 q 174 -303 229 -303 q 82 -265 124 -303 q 43 -172 43 -226 m 129 1060 l 238 1060 l 282 803 l 328 535 l 379 808 l 424 1060 l 531 1060 l 331 17 l 129 1060 z "},"W":{"ha":694,"x_min":0,"x_max":694,"o":"m 0 1110 l 694 1110 l 694 1457 l 0 1457 l 0 1110 m 390 1283 q 428 1373 390 1332 q 521 1414 465 1414 q 610 1376 569 1414 q 651 1283 651 1339 q 614 1192 651 1233 q 521 1153 575 1153 q 429 1190 471 1153 q 390 1283 390 1229 m 43 1283 q 81 1373 43 1332 q 174 1414 118 1414 q 263 1376 222 1414 q 304 1283 304 1339 q 267 1192 304 1233 q 174 1153 228 1153 q 82 1190 124 1153 q 43 1283 43 1229 m 0 -346 l 694 -346 l 694 1 l 0 1 l 0 -346 m 390 -172 q 428 -81 390 -122 q 521 -42 467 -42 q 610 -79 569 -42 q 651 -172 651 -117 q 614 -262 651 -221 q 521 -303 576 -303 q 429 -265 471 -303 q 390 -172 390 -226 m 43 -172 q 81 -81 43 -122 q 174 -42 119 -42 q 263 -79 222 -42 q 304 -172 304 -117 q 267 -262 304 -221 q 174 -303 229 -303 q 82 -265 124 -303 q 43 -172 43 -226 m 43 1053 l 157 1053 l 176 936 l 200 794 l 225 654 l 246 539 l 303 836 l 351 1094 l 374 972 l 401 822 l 431 671 l 456 539 l 478 664 l 501 803 l 525 939 l 546 1053 l 656 1053 l 463 10 l 350 567 l 326 453 l 299 300 l 271 140 l 249 10 l 43 1053 z "},"X":{"ha":694,"x_min":0,"x_max":694,"o":"m 0 1110 l 694 1110 l 694 1457 l 0 1457 l 0 1110 m 390 1283 q 428 1373 390 1332 q 521 1414 465 1414 q 610 1376 569 1414 q 651 1283 651 1339 q 614 1192 651 1233 q 521 1153 575 1153 q 429 1190 471 1153 q 390 1283 390 1229 m 43 1283 q 81 1373 43 1332 q 174 1414 118 1414 q 263 1376 222 1414 q 304 1283 304 1339 q 267 1192 304 1233 q 174 1153 228 1153 q 82 1190 124 1153 q 43 1283 43 1229 m 0 -346 l 694 -346 l 694 1 l 0 1 l 0 -346 m 390 -172 q 428 -81 390 -122 q 521 -42 467 -42 q 610 -79 569 -42 q 651 -172 651 -117 q 614 -262 651 -221 q 521 -303 576 -303 q 429 -265 471 -303 q 390 -172 390 -226 m 43 -172 q 81 -81 43 -122 q 174 -42 119 -42 q 263 -79 222 -42 q 304 -172 304 -117 q 267 -262 304 -221 q 174 -303 229 -303 q 82 -265 124 -303 q 43 -172 43 -226 m 171 1039 l 274 1039 l 357 725 l 440 1039 l 543 1039 l 513 918 l 482 804 l 443 657 l 421 579 l 418 565 l 417 551 l 422 519 l 446 433 l 486 282 l 543 63 l 442 63 l 358 376 l 338 308 l 314 222 l 290 135 l 274 63 l 171 63 l 196 167 l 233 308 l 272 456 l 293 528 l 299 550 l 292 581 l 268 667 l 226 815 l 171 1039 z "},"Y":{"ha":694,"x_min":0,"x_max":694,"o":"m 0 1110 l 694 1110 l 694 1457 l 0 1457 l 0 1110 m 390 1283 q 428 1373 390 1332 q 521 1414 465 1414 q 610 1376 569 1414 q 651 1283 651 1339 q 614 1192 651 1233 q 521 1153 575 1153 q 429 1190 471 1153 q 390 1283 390 1229 m 43 1283 q 81 1373 43 1332 q 174 1414 118 1414 q 263 1376 222 1414 q 304 1283 304 1339 q 267 1192 304 1233 q 174 1153 228 1153 q 82 1190 124 1153 q 43 1283 43 1229 m 0 -346 l 694 -346 l 694 1 l 0 1 l 0 -346 m 390 -172 q 428 -81 390 -122 q 521 -42 467 -42 q 610 -79 569 -42 q 651 -172 651 -117 q 614 -262 651 -221 q 521 -303 576 -303 q 429 -265 471 -303 q 390 -172 390 -226 m 43 -172 q 81 -81 43 -122 q 174 -42 119 -42 q 263 -79 222 -42 q 304 -172 304 -117 q 267 -262 304 -221 q 174 -303 229 -303 q 82 -265 124 -303 q 43 -172 43 -226 m 169 1039 l 275 1039 l 275 454 q 292 393 275 417 q 343 374 308 374 q 394 394 378 374 q 411 451 411 415 l 411 1039 l 517 1039 l 517 444 q 488 338 517 386 q 396 271 463 292 l 396 63 l 290 63 l 290 271 q 195 344 221 294 q 169 447 169 393 l 169 1039 z "},"Z":{"ha":694,"x_min":0,"x_max":694,"o":"m 0 1110 l 694 1110 l 694 1457 l 0 1457 l 0 1110 m 390 1283 q 428 1373 390 1332 q 521 1414 465 1414 q 610 1376 569 1414 q 651 1283 651 1339 q 614 1192 651 1233 q 521 1153 575 1153 q 429 1190 471 1153 q 390 1283 390 1229 m 43 1283 q 81 1373 43 1332 q 174 1414 118 1414 q 263 1376 222 1414 q 304 1283 304 1339 q 267 1192 304 1233 q 174 1153 228 1153 q 82 1190 124 1153 q 43 1283 43 1229 m 0 -346 l 694 -346 l 694 1 l 0 1 l 0 -346 m 390 -172 q 428 -81 390 -122 q 521 -42 467 -42 q 610 -79 569 -42 q 651 -172 651 -117 q 614 -262 651 -221 q 521 -303 576 -303 q 429 -265 471 -303 q 390 -172 390 -226 m 43 -172 q 81 -81 43 -122 q 174 -42 119 -42 q 263 -79 222 -42 q 304 -172 304 -117 q 267 -262 304 -221 q 174 -303 229 -303 q 82 -265 124 -303 q 43 -172 43 -226 m 190 1039 l 517 1039 l 300 168 l 501 168 l 501 63 l 167 63 l 381 932 l 190 932 l 190 1039 z "},"[":{"ha":868,"x_min":-1,"x_max":867,"o":"m 832 1285 q 794 1378 832 1336 q 701 1415 753 1415 q 610 1378 651 1415 q 572 1285 572 1340 q 610 1193 572 1235 q 701 1156 647 1156 q 794 1193 753 1156 q 832 1285 832 1235 m 524 1281 q 485 1371 524 1332 q 393 1410 446 1410 q 301 1372 339 1410 q 263 1281 263 1333 q 301 1188 263 1226 q 393 1150 343 1150 q 485 1189 447 1150 q 524 1281 524 1228 m 303 390 q 265 480 303 439 q 172 521 228 521 q 81 483 122 521 q 42 390 42 444 q 79 299 42 340 q 172 260 118 260 q 262 297 221 260 q 303 390 303 335 m 832 -174 q 794 -82 832 -124 q 701 -44 754 -44 q 610 -82 650 -44 q 572 -174 572 -122 q 581 -222 572 -200 q 610 -267 589 -243 q 701 -304 650 -304 q 794 -267 750 -304 q 832 -174 832 -226 m 306 1063 q 268 1156 306 1114 q 176 1193 226 1193 q 83 1156 125 1193 q 46 1063 46 1114 q 83 971 46 1013 q 176 933 121 933 q 268 971 226 933 q 306 1063 306 1008 m 524 -169 q 485 -78 524 -117 q 393 -39 446 -39 q 301 -76 343 -39 q 263 -169 263 -115 q 300 -260 263 -218 q 393 -299 339 -299 q 485 -260 446 -299 q 524 -169 524 -221 m 306 49 q 268 140 306 100 q 176 178 228 178 q 128 169 150 178 q 83 140 107 161 q 46 49 46 100 q 83 -44 46 0 q 176 -82 124 -82 q 268 -44 226 -82 q 306 49 306 -4 m 303 735 q 264 827 303 789 q 172 865 225 865 q 80 826 118 865 q 42 735 42 788 q 81 642 42 681 q 172 604 121 604 q 265 644 226 604 q 303 735 303 683 m 346 175 l 346 146 l 350 122 q 386 42 354 74 q 486 4 411 17 l 519 1 l 867 1 l 867 -346 l 433 -346 q 372 -340 394 -346 q 129 -215 233 -315 q 17 -17 54 -142 l 4 35 l -1 88 l -1 575 l -1 1024 q 4 1082 -1 1058 l 17 1128 q 62 1240 35 1193 q 129 1326 89 1286 q 372 1451 232 1426 l 433 1457 l 867 1457 l 867 1110 l 519 1110 l 486 1107 q 383 1068 411 1099 q 350 989 356 1038 l 346 951 l 346 936 l 346 561 l 346 175 z "},"\\":{"ha":347,"x_min":0,"x_max":347,"o":"m 0 1110 l 347 1110 l 347 1457 l 0 1457 l 0 1110 m 43 1283 q 81 1373 43 1332 q 174 1414 118 1414 q 263 1376 222 1414 q 304 1283 304 1339 q 267 1192 304 1233 q 174 1153 228 1153 q 82 1190 124 1153 q 43 1283 43 1229 m 0 -346 l 347 -346 l 347 1 l 0 1 l 0 -346 m 43 -172 q 81 -81 43 -122 q 174 -42 119 -42 q 263 -79 222 -42 q 304 -172 304 -117 q 267 -262 304 -221 q 174 -303 229 -303 q 82 -265 124 -303 q 43 -172 43 -226 m 111 1053 l 340 63 l 235 63 l 6 1053 l 111 1053 z "},"]":{"ha":1028,"x_min":3,"x_max":871,"o":"m 871 88 q 865 29 871 53 l 853 -17 q 807 -126 836 -78 q 740 -215 783 -172 q 497 -340 638 -315 l 436 -346 l 3 -346 l 3 1 l 350 1 l 383 4 q 485 43 458 15 q 519 122 511 71 l 522 149 l 524 175 l 524 561 l 524 936 l 524 951 l 519 989 q 488 1065 515 1035 q 383 1107 460 1094 l 350 1110 l 3 1110 l 3 1457 l 436 1457 q 497 1451 475 1457 q 740 1326 636 1426 q 853 1128 815 1253 l 865 1075 l 871 1024 l 871 575 l 871 88 m 824 1063 q 786 1156 824 1111 q 693 1193 746 1193 q 601 1156 643 1193 q 564 1063 564 1115 q 601 971 564 1011 q 693 933 642 933 q 741 942 719 933 q 786 971 763 950 q 824 1063 824 1011 m 607 1281 q 568 1370 607 1331 q 476 1410 529 1410 q 385 1371 424 1410 q 346 1281 346 1332 q 384 1190 346 1229 q 476 1150 422 1150 q 568 1188 526 1150 q 607 1281 607 1226 m 297 1285 q 289 1333 297 1311 q 260 1378 281 1354 q 168 1415 219 1415 q 75 1378 119 1415 q 38 1285 38 1338 q 75 1193 38 1235 q 168 1156 115 1156 q 260 1193 219 1156 q 297 1285 297 1233 m 828 735 q 790 824 828 783 q 697 865 753 865 q 606 828 647 865 q 567 735 567 789 q 604 643 567 685 q 697 604 643 604 q 787 642 746 604 q 828 735 828 679 m 828 390 q 789 483 828 444 q 697 521 750 521 q 605 482 643 521 q 567 390 567 443 q 606 298 567 336 q 697 260 646 260 q 790 299 751 260 q 828 390 828 339 m 824 49 q 786 140 824 99 q 693 178 749 178 q 601 140 643 178 q 564 49 564 103 q 601 -44 564 -3 q 693 -82 643 -82 q 786 -44 744 -82 q 824 49 824 -3 m 607 -169 q 568 -76 607 -115 q 476 -39 526 -39 q 384 -77 422 -39 q 346 -169 346 -115 q 385 -260 346 -221 q 476 -299 424 -299 q 569 -260 531 -299 q 607 -169 607 -221 m 297 -174 q 260 -82 297 -124 q 168 -44 222 -44 q 75 -82 117 -44 q 38 -174 38 -124 q 75 -267 38 -225 q 168 -304 117 -304 q 260 -267 218 -304 q 297 -174 297 -229 z "},"^":{"ha":694,"x_min":0,"x_max":694,"o":"m 0 1110 l 694 1110 l 694 1457 l 0 1457 l 0 1110 m 390 1283 q 428 1373 390 1332 q 521 1414 465 1414 q 610 1376 569 1414 q 651 1283 651 1339 q 614 1192 651 1233 q 521 1153 575 1153 q 429 1190 471 1153 q 390 1283 390 1229 m 43 1283 q 81 1373 43 1332 q 174 1414 118 1414 q 263 1376 222 1414 q 304 1283 304 1339 q 267 1192 304 1233 q 174 1153 228 1153 q 82 1190 124 1153 q 43 1283 43 1229 m 0 -346 l 694 -346 l 694 1 l 0 1 l 0 -346 m 390 -172 q 428 -81 390 -122 q 521 -42 467 -42 q 610 -79 569 -42 q 651 -172 651 -117 q 614 -262 651 -221 q 521 -303 576 -303 q 429 -265 471 -303 q 390 -172 390 -226 m 43 -172 q 81 -81 43 -122 q 174 -42 119 -42 q 263 -79 222 -42 q 304 -172 304 -117 q 267 -262 304 -221 q 174 -303 229 -303 q 82 -265 124 -303 q 43 -172 43 -226 m 418 1006 l 611 543 l 496 543 l 367 886 l 219 550 l 103 550 l 313 1006 l 418 1006 z "},"_":{"ha":694,"x_min":0,"x_max":694,"o":"m 0 1110 l 694 1110 l 694 1457 l 0 1457 l 0 1110 m 390 1283 q 428 1373 390 1332 q 521 1414 465 1414 q 610 1376 569 1414 q 651 1283 651 1339 q 614 1192 651 1233 q 521 1153 575 1153 q 429 1190 471 1153 q 390 1283 390 1229 m 43 1283 q 81 1373 43 1332 q 174 1414 118 1414 q 263 1376 222 1414 q 304 1283 304 1339 q 267 1192 304 1233 q 174 1153 228 1153 q 82 1190 124 1153 q 43 1283 43 1229 m 0 -346 l 694 -346 l 694 1 l 0 1 l 0 -346 m 390 -172 q 428 -81 390 -122 q 521 -42 467 -42 q 610 -79 569 -42 q 651 -172 651 -117 q 614 -262 651 -221 q 521 -303 576 -303 q 429 -265 471 -303 q 390 -172 390 -226 m 43 -172 q 81 -81 43 -122 q 174 -42 119 -42 q 263 -79 222 -42 q 304 -172 304 -117 q 267 -262 304 -221 q 174 -303 229 -303 q 82 -265 124 -303 q 43 -172 43 -226 z "},"`":{"ha":694,"x_min":0,"x_max":694,"o":"m 0 1110 l 694 1110 l 694 1457 l 0 1457 l 0 1110 m 390 1283 q 428 1373 390 1332 q 521 1414 465 1414 q 610 1376 569 1414 q 651 1283 651 1339 q 614 1192 651 1233 q 521 1153 575 1153 q 429 1190 471 1153 q 390 1283 390 1229 m 43 1283 q 81 1373 43 1332 q 174 1414 118 1414 q 263 1376 222 1414 q 304 1283 304 1339 q 267 1192 304 1233 q 174 1153 228 1153 q 82 1190 124 1153 q 43 1283 43 1229 m 0 -346 l 694 -346 l 694 1 l 0 1 l 0 -346 m 390 -172 q 428 -81 390 -122 q 521 -42 467 -42 q 610 -79 569 -42 q 651 -172 651 -117 q 614 -262 651 -221 q 521 -303 576 -303 q 429 -265 471 -303 q 390 -172 390 -226 m 43 -172 q 81 -81 43 -122 q 174 -42 119 -42 q 263 -79 222 -42 q 304 -172 304 -117 q 267 -262 304 -221 q 174 -303 229 -303 q 82 -265 124 -303 q 43 -172 43 -226 m 303 1050 l 439 817 l 358 817 l 169 1050 l 303 1050 z "},"a":{"ha":694,"x_min":0,"x_max":694,"o":"m 0 1110 l 694 1110 l 694 1457 l 0 1457 l 0 1110 m 390 1283 q 428 1373 390 1332 q 521 1414 465 1414 q 610 1376 569 1414 q 651 1283 651 1339 q 614 1192 651 1233 q 521 1153 575 1153 q 429 1190 471 1153 q 390 1283 390 1229 m 43 1283 q 81 1373 43 1332 q 174 1414 118 1414 q 263 1376 222 1414 q 304 1283 304 1339 q 267 1192 304 1233 q 174 1153 228 1153 q 82 1190 124 1153 q 43 1283 43 1229 m 0 -346 l 694 -346 l 694 1 l 0 1 l 0 -346 m 390 -172 q 428 -81 390 -122 q 521 -42 467 -42 q 610 -79 569 -42 q 651 -172 651 -117 q 614 -262 651 -221 q 521 -303 576 -303 q 429 -265 471 -303 q 390 -172 390 -226 m 43 -172 q 81 -81 43 -122 q 174 -42 119 -42 q 263 -79 222 -42 q 304 -172 304 -117 q 267 -262 304 -221 q 174 -303 229 -303 q 82 -265 124 -303 q 43 -172 43 -226 m 360 1068 q 488 1013 446 1068 q 529 883 529 958 l 529 67 l 424 67 l 424 269 l 292 269 l 292 67 l 186 67 l 186 269 l 94 269 l 35 367 l 186 367 l 186 875 q 232 1014 186 960 q 360 1068 278 1068 m 358 963 q 306 939 324 963 q 292 876 292 914 l 292 367 l 424 367 l 424 875 q 411 938 424 913 q 358 963 396 963 z "},"b":{"ha":694,"x_min":0,"x_max":694,"o":"m 0 1110 l 694 1110 l 694 1457 l 0 1457 l 0 1110 m 390 1283 q 428 1373 390 1332 q 521 1414 465 1414 q 610 1376 569 1414 q 651 1283 651 1339 q 614 1192 651 1233 q 521 1153 575 1153 q 429 1190 471 1153 q 390 1283 390 1229 m 43 1283 q 81 1373 43 1332 q 174 1414 118 1414 q 263 1376 222 1414 q 304 1283 304 1339 q 267 1192 304 1233 q 174 1153 228 1153 q 82 1190 124 1153 q 43 1283 43 1229 m 0 -346 l 694 -346 l 694 1 l 0 1 l 0 -346 m 390 -172 q 428 -81 390 -122 q 521 -42 467 -42 q 610 -79 569 -42 q 651 -172 651 -117 q 614 -262 651 -221 q 521 -303 576 -303 q 429 -265 471 -303 q 390 -172 390 -226 m 43 -172 q 81 -81 43 -122 q 174 -42 119 -42 q 263 -79 222 -42 q 304 -172 304 -117 q 267 -262 304 -221 q 174 -303 229 -303 q 82 -265 124 -303 q 43 -172 43 -226 m 210 1074 q 468 902 376 1024 q 560 635 560 781 q 558 586 560 603 q 549 535 557 569 q 521 463 542 500 q 449 357 488 392 q 530 317 500 346 q 560 240 560 289 l 560 186 q 515 92 560 128 q 396 56 471 56 l 210 56 l 210 258 l 118 258 l 58 356 l 210 356 l 210 1074 m 315 903 l 315 356 q 406 450 360 385 q 442 526 429 483 q 454 625 454 569 q 422 770 454 696 q 315 903 390 844 m 315 258 l 315 161 l 407 161 q 442 169 431 161 q 454 208 454 178 q 443 247 454 236 q 401 258 432 258 l 315 258 z "},"c":{"ha":694,"x_min":0,"x_max":694,"o":"m 0 1110 l 694 1110 l 694 1457 l 0 1457 l 0 1110 m 390 1283 q 428 1373 390 1332 q 521 1414 465 1414 q 610 1376 569 1414 q 651 1283 651 1339 q 614 1192 651 1233 q 521 1153 575 1153 q 429 1190 471 1153 q 390 1283 390 1229 m 43 1283 q 81 1373 43 1332 q 174 1414 118 1414 q 263 1376 222 1414 q 304 1283 304 1339 q 267 1192 304 1233 q 174 1153 228 1153 q 82 1190 124 1153 q 43 1283 43 1229 m 0 -346 l 694 -346 l 694 1 l 0 1 l 0 -346 m 390 -172 q 428 -81 390 -122 q 521 -42 467 -42 q 610 -79 569 -42 q 651 -172 651 -117 q 614 -262 651 -221 q 521 -303 576 -303 q 429 -265 471 -303 q 390 -172 390 -226 m 43 -172 q 81 -81 43 -122 q 174 -42 119 -42 q 263 -79 222 -42 q 304 -172 304 -117 q 267 -262 304 -221 q 174 -303 229 -303 q 82 -265 124 -303 q 43 -172 43 -226 m 471 1039 q 308 849 382 969 q 249 714 272 788 q 229 553 229 640 q 297 267 229 386 q 469 63 364 149 l 317 63 q 190 250 257 118 q 141 391 158 314 q 124 554 124 468 q 144 723 124 649 q 203 869 164 797 q 317 1039 272 999 l 471 1039 z "},"d":{"ha":694,"x_min":0,"x_max":694,"o":"m 0 1110 l 694 1110 l 694 1457 l 0 1457 l 0 1110 m 390 1283 q 428 1373 390 1332 q 521 1414 465 1414 q 610 1376 569 1414 q 651 1283 651 1339 q 614 1192 651 1233 q 521 1153 575 1153 q 429 1190 471 1153 q 390 1283 390 1229 m 43 1283 q 81 1373 43 1332 q 174 1414 118 1414 q 263 1376 222 1414 q 304 1283 304 1339 q 267 1192 304 1233 q 174 1153 228 1153 q 82 1190 124 1153 q 43 1283 43 1229 m 0 -346 l 694 -346 l 694 1 l 0 1 l 0 -346 m 390 -172 q 428 -81 390 -122 q 521 -42 467 -42 q 610 -79 569 -42 q 651 -172 651 -117 q 614 -262 651 -221 q 521 -303 576 -303 q 429 -265 471 -303 q 390 -172 390 -226 m 43 -172 q 81 -81 43 -122 q 174 -42 119 -42 q 263 -79 222 -42 q 304 -172 304 -117 q 267 -262 304 -221 q 174 -303 229 -303 q 82 -265 124 -303 q 43 -172 43 -226 m 165 1079 q 424 888 315 1024 q 504 740 476 822 q 532 558 532 657 q 442 251 532 389 q 165 36 351 114 l 165 1079 m 271 889 l 271 217 q 381 363 336 276 q 415 453 403 406 q 426 553 426 501 q 389 724 426 635 q 271 889 351 813 z "},"e":{"ha":694,"x_min":0,"x_max":694,"o":"m 0 1110 l 694 1110 l 694 1457 l 0 1457 l 0 1110 m 390 1283 q 428 1373 390 1332 q 521 1414 465 1414 q 610 1376 569 1414 q 651 1283 651 1339 q 614 1192 651 1233 q 521 1153 575 1153 q 429 1190 471 1153 q 390 1283 390 1229 m 43 1283 q 81 1373 43 1332 q 174 1414 118 1414 q 263 1376 222 1414 q 304 1283 304 1339 q 267 1192 304 1233 q 174 1153 228 1153 q 82 1190 124 1153 q 43 1283 43 1229 m 0 -346 l 694 -346 l 694 1 l 0 1 l 0 -346 m 390 -172 q 428 -81 390 -122 q 521 -42 467 -42 q 610 -79 569 -42 q 651 -172 651 -117 q 614 -262 651 -221 q 521 -303 576 -303 q 429 -265 471 -303 q 390 -172 390 -226 m 43 -172 q 81 -81 43 -122 q 174 -42 119 -42 q 263 -79 222 -42 q 304 -172 304 -117 q 267 -262 304 -221 q 174 -303 229 -303 q 82 -265 124 -303 q 43 -172 43 -226 m 203 1046 l 507 1046 l 507 939 l 308 939 l 308 369 l 507 369 l 507 272 l 308 272 l 308 214 q 319 182 308 192 q 358 175 331 175 l 507 175 l 507 69 l 351 69 q 242 107 281 69 q 203 215 203 144 l 203 272 l 111 272 l 51 369 l 203 369 l 203 1046 z "},"f":{"ha":694,"x_min":0,"x_max":694,"o":"m 0 1110 l 694 1110 l 694 1457 l 0 1457 l 0 1110 m 390 1283 q 428 1373 390 1332 q 521 1414 465 1414 q 610 1376 569 1414 q 651 1283 651 1339 q 614 1192 651 1233 q 521 1153 575 1153 q 429 1190 471 1153 q 390 1283 390 1229 m 43 1283 q 81 1373 43 1332 q 174 1414 118 1414 q 263 1376 222 1414 q 304 1283 304 1339 q 267 1192 304 1233 q 174 1153 228 1153 q 82 1190 124 1153 q 43 1283 43 1229 m 0 -346 l 694 -346 l 694 1 l 0 1 l 0 -346 m 390 -172 q 428 -81 390 -122 q 521 -42 467 -42 q 610 -79 569 -42 q 651 -172 651 -117 q 614 -262 651 -221 q 521 -303 576 -303 q 429 -265 471 -303 q 390 -172 390 -226 m 43 -172 q 81 -81 43 -122 q 174 -42 119 -42 q 263 -79 222 -42 q 304 -172 304 -117 q 267 -262 304 -221 q 174 -303 229 -303 q 82 -265 124 -303 q 43 -172 43 -226 m 238 1046 l 542 1046 l 542 939 l 343 939 l 343 369 l 542 369 l 542 272 l 343 272 l 343 69 l 238 69 l 238 272 l 146 272 l 86 369 l 238 369 l 238 1046 z "},"g":{"ha":694,"x_min":0,"x_max":694,"o":"m 0 1110 l 694 1110 l 694 1457 l 0 1457 l 0 1110 m 390 1283 q 428 1373 390 1332 q 521 1414 465 1414 q 610 1376 569 1414 q 651 1283 651 1339 q 614 1192 651 1233 q 521 1153 575 1153 q 429 1190 471 1153 q 390 1283 390 1229 m 43 1283 q 81 1373 43 1332 q 174 1414 118 1414 q 263 1376 222 1414 q 304 1283 304 1339 q 267 1192 304 1233 q 174 1153 228 1153 q 82 1190 124 1153 q 43 1283 43 1229 m 0 -346 l 694 -346 l 694 1 l 0 1 l 0 -346 m 390 -172 q 428 -81 390 -122 q 521 -42 467 -42 q 610 -79 569 -42 q 651 -172 651 -117 q 614 -262 651 -221 q 521 -303 576 -303 q 429 -265 471 -303 q 390 -172 390 -226 m 43 -172 q 81 -81 43 -122 q 174 -42 119 -42 q 263 -79 222 -42 q 304 -172 304 -117 q 267 -262 304 -221 q 174 -303 229 -303 q 82 -265 124 -303 q 43 -172 43 -226 m 499 1079 l 499 967 q 303 808 376 913 q 231 561 231 703 q 277 351 231 435 q 393 214 324 268 l 393 550 l 499 550 l 499 36 q 224 238 324 99 q 149 389 174 308 q 125 560 125 469 q 233 883 125 746 q 499 1079 333 1011 z "},"h":{"ha":694,"x_min":0,"x_max":694,"o":"m 0 1110 l 694 1110 l 694 1457 l 0 1457 l 0 1110 m 390 1283 q 428 1373 390 1332 q 521 1414 465 1414 q 610 1376 569 1414 q 651 1283 651 1339 q 614 1192 651 1233 q 521 1153 575 1153 q 429 1190 471 1153 q 390 1283 390 1229 m 43 1283 q 81 1373 43 1332 q 174 1414 118 1414 q 263 1376 222 1414 q 304 1283 304 1339 q 267 1192 304 1233 q 174 1153 228 1153 q 82 1190 124 1153 q 43 1283 43 1229 m 0 -346 l 694 -346 l 694 1 l 0 1 l 0 -346 m 390 -172 q 428 -81 390 -122 q 521 -42 467 -42 q 610 -79 569 -42 q 651 -172 651 -117 q 614 -262 651 -221 q 521 -303 576 -303 q 429 -265 471 -303 q 390 -172 390 -226 m 43 -172 q 81 -81 43 -122 q 174 -42 119 -42 q 263 -79 222 -42 q 304 -172 304 -117 q 267 -262 304 -221 q 174 -303 229 -303 q 82 -265 124 -303 q 43 -172 43 -226 m 186 1046 l 292 1046 l 292 369 l 431 369 l 431 1046 l 536 1046 l 536 69 l 431 69 l 431 272 l 292 272 l 292 69 l 186 69 l 186 272 l 94 272 l 35 369 l 186 369 l 186 1046 z "},"i":{"ha":347,"x_min":0,"x_max":347,"o":"m 0 1110 l 347 1110 l 347 1457 l 0 1457 l 0 1110 m 43 1283 q 81 1373 43 1332 q 174 1414 118 1414 q 263 1376 222 1414 q 304 1283 304 1339 q 267 1192 304 1233 q 174 1153 228 1153 q 82 1190 124 1153 q 43 1283 43 1229 m 0 -346 l 347 -346 l 347 1 l 0 1 l 0 -346 m 43 -172 q 81 -81 43 -122 q 174 -42 119 -42 q 263 -79 222 -42 q 304 -172 304 -117 q 267 -262 304 -221 q 174 -303 229 -303 q 82 -265 124 -303 q 43 -172 43 -226 m 215 1053 l 215 76 l 110 76 l 110 1053 l 215 1053 z "},"j":{"ha":694,"x_min":0,"x_max":694,"o":"m 0 1110 l 694 1110 l 694 1457 l 0 1457 l 0 1110 m 390 1283 q 428 1373 390 1332 q 521 1414 465 1414 q 610 1376 569 1414 q 651 1283 651 1339 q 614 1192 651 1233 q 521 1153 575 1153 q 429 1190 471 1153 q 390 1283 390 1229 m 43 1283 q 81 1373 43 1332 q 174 1414 118 1414 q 263 1376 222 1414 q 304 1283 304 1339 q 267 1192 304 1233 q 174 1153 228 1153 q 82 1190 124 1153 q 43 1283 43 1229 m 0 -346 l 694 -346 l 694 1 l 0 1 l 0 -346 m 390 -172 q 428 -81 390 -122 q 521 -42 467 -42 q 610 -79 569 -42 q 651 -172 651 -117 q 614 -262 651 -221 q 521 -303 576 -303 q 429 -265 471 -303 q 390 -172 390 -226 m 43 -172 q 81 -81 43 -122 q 174 -42 119 -42 q 263 -79 222 -42 q 304 -172 304 -117 q 267 -262 304 -221 q 174 -303 229 -303 q 82 -265 124 -303 q 43 -172 43 -226 m 458 1046 l 458 393 q 439 259 458 318 q 375 151 419 200 q 186 46 296 68 l 186 154 q 310 233 267 171 q 353 394 353 294 l 353 1046 l 458 1046 z "},"k":{"ha":694,"x_min":0,"x_max":694,"o":"m 0 1110 l 694 1110 l 694 1457 l 0 1457 l 0 1110 m 390 1283 q 428 1373 390 1332 q 521 1414 465 1414 q 610 1376 569 1414 q 651 1283 651 1339 q 614 1192 651 1233 q 521 1153 575 1153 q 429 1190 471 1153 q 390 1283 390 1229 m 43 1283 q 81 1373 43 1332 q 174 1414 118 1414 q 263 1376 222 1414 q 304 1283 304 1339 q 267 1192 304 1233 q 174 1153 228 1153 q 82 1190 124 1153 q 43 1283 43 1229 m 0 -346 l 694 -346 l 694 1 l 0 1 l 0 -346 m 390 -172 q 428 -81 390 -122 q 521 -42 467 -42 q 610 -79 569 -42 q 651 -172 651 -117 q 614 -262 651 -221 q 521 -303 576 -303 q 429 -265 471 -303 q 390 -172 390 -226 m 43 -172 q 81 -81 43 -122 q 174 -42 119 -42 q 263 -79 222 -42 q 304 -172 304 -117 q 267 -262 304 -221 q 174 -303 229 -303 q 82 -265 124 -303 q 43 -172 43 -226 m 288 1046 l 288 369 q 392 488 350 411 q 424 569 413 526 q 435 665 435 613 l 435 1046 l 542 1046 l 542 671 q 516 499 542 571 q 435 374 490 428 q 515 320 488 356 q 542 235 542 285 l 542 69 l 435 69 l 435 226 q 426 262 435 251 q 389 272 417 272 l 288 272 l 288 69 l 182 69 l 182 272 l 90 272 l 31 369 l 182 369 l 182 1046 l 288 1046 z "},"l":{"ha":694,"x_min":0,"x_max":694,"o":"m 0 1110 l 694 1110 l 694 1457 l 0 1457 l 0 1110 m 390 1283 q 428 1373 390 1332 q 521 1414 465 1414 q 610 1376 569 1414 q 651 1283 651 1339 q 614 1192 651 1233 q 521 1153 575 1153 q 429 1190 471 1153 q 390 1283 390 1229 m 43 1283 q 81 1373 43 1332 q 174 1414 118 1414 q 263 1376 222 1414 q 304 1283 304 1339 q 267 1192 304 1233 q 174 1153 228 1153 q 82 1190 124 1153 q 43 1283 43 1229 m 0 -346 l 694 -346 l 694 1 l 0 1 l 0 -346 m 390 -172 q 428 -81 390 -122 q 521 -42 467 -42 q 610 -79 569 -42 q 651 -172 651 -117 q 614 -262 651 -221 q 521 -303 576 -303 q 429 -265 471 -303 q 390 -172 390 -226 m 43 -172 q 81 -81 43 -122 q 174 -42 119 -42 q 263 -79 222 -42 q 304 -172 304 -117 q 267 -262 304 -221 q 174 -303 229 -303 q 82 -265 124 -303 q 43 -172 43 -226 m 325 1046 l 325 243 q 336 187 325 199 q 390 175 347 175 l 507 175 l 507 69 l 378 69 q 254 114 293 69 q 218 232 218 161 l 218 1046 l 325 1046 z "},"m":{"ha":1028,"x_min":0,"x_max":1028,"o":"m 0 1110 l 1028 1110 l 1028 1457 l 0 1457 l 0 1110 m 390 1283 q 428 1373 390 1332 q 521 1414 465 1414 q 610 1376 569 1414 q 651 1283 651 1339 q 614 1192 651 1233 q 521 1153 575 1153 q 429 1190 471 1153 q 390 1283 390 1229 m 43 1283 q 81 1373 43 1332 q 174 1414 118 1414 q 263 1376 222 1414 q 304 1283 304 1339 q 267 1192 304 1233 q 174 1153 228 1153 q 82 1190 124 1153 q 43 1283 43 1229 m 0 -346 l 1028 -346 l 1028 1 l 0 1 l 0 -346 m 390 -172 q 428 -81 390 -122 q 521 -42 467 -42 q 610 -79 569 -42 q 651 -172 651 -117 q 614 -262 651 -221 q 528 -303 576 -303 q 476 -294 499 -303 q 429 -264 453 -285 q 390 -172 390 -228 m 43 -172 q 81 -81 43 -122 q 174 -42 119 -42 q 263 -79 222 -42 q 304 -172 304 -117 q 267 -262 304 -221 q 174 -303 229 -303 q 82 -265 124 -303 q 43 -172 43 -226 m 397 1057 q 463 1043 435 1057 q 486 1032 479 1039 l 513 1013 q 563 1042 531 1028 q 629 1057 594 1057 q 744 1013 700 1057 q 789 890 789 968 l 789 56 l 683 56 l 683 886 q 668 935 683 918 q 626 951 653 951 q 581 933 597 951 q 567 885 567 915 l 567 56 l 461 56 l 461 885 q 447 931 461 913 l 428 946 l 403 951 q 360 932 375 951 q 344 888 344 917 l 344 56 l 239 56 l 239 892 q 282 1010 239 963 q 397 1057 325 1057 m 717 -172 q 754 -81 717 -122 q 847 -42 793 -42 q 937 -79 896 -42 q 978 -172 978 -117 q 940 -262 978 -221 q 854 -303 903 -303 q 802 -294 825 -303 q 756 -264 779 -285 q 717 -172 717 -228 m 724 1279 q 761 1369 724 1328 q 854 1410 799 1410 q 944 1372 903 1410 q 985 1279 985 1335 q 947 1188 985 1229 q 861 1149 908 1149 q 809 1157 833 1149 q 763 1188 785 1165 q 724 1279 724 1224 z "},"n":{"ha":694,"x_min":0,"x_max":694,"o":"m 0 1110 l 694 1110 l 694 1457 l 0 1457 l 0 1110 m 390 1283 q 428 1373 390 1332 q 521 1414 465 1414 q 610 1376 569 1414 q 651 1283 651 1339 q 614 1192 651 1233 q 521 1153 575 1153 q 429 1190 471 1153 q 390 1283 390 1229 m 43 1283 q 81 1373 43 1332 q 174 1414 118 1414 q 263 1376 222 1414 q 304 1283 304 1339 q 267 1192 304 1233 q 174 1153 228 1153 q 82 1190 124 1153 q 43 1283 43 1229 m 0 -346 l 694 -346 l 694 1 l 0 1 l 0 -346 m 390 -172 q 428 -81 390 -122 q 521 -42 467 -42 q 610 -79 569 -42 q 651 -172 651 -117 q 614 -262 651 -221 q 521 -303 576 -303 q 429 -265 471 -303 q 390 -172 390 -226 m 43 -172 q 81 -81 43 -122 q 174 -42 119 -42 q 263 -79 222 -42 q 304 -172 304 -117 q 267 -262 304 -221 q 174 -303 229 -303 q 82 -265 124 -303 q 43 -172 43 -226 m 171 1069 l 404 664 l 404 1018 l 511 1018 l 511 42 l 404 42 l 404 471 l 276 679 l 276 42 l 171 42 l 171 1069 z "},"o":{"ha":694,"x_min":0,"x_max":694,"o":"m 0 1110 l 694 1110 l 694 1457 l 0 1457 l 0 1110 m 390 1283 q 428 1373 390 1332 q 521 1414 465 1414 q 610 1376 569 1414 q 651 1283 651 1339 q 614 1192 651 1233 q 521 1153 575 1153 q 429 1190 471 1153 q 390 1283 390 1229 m 43 1283 q 81 1373 43 1332 q 174 1414 118 1414 q 263 1376 222 1414 q 304 1283 304 1339 q 267 1192 304 1233 q 174 1153 228 1153 q 82 1190 124 1153 q 43 1283 43 1229 m 0 -346 l 694 -346 l 694 1 l 0 1 l 0 -346 m 390 -172 q 428 -81 390 -122 q 521 -42 467 -42 q 610 -79 569 -42 q 651 -172 651 -117 q 614 -262 651 -221 q 521 -303 576 -303 q 429 -265 471 -303 q 390 -172 390 -226 m 43 -172 q 81 -81 43 -122 q 174 -42 119 -42 q 263 -79 222 -42 q 304 -172 304 -117 q 267 -262 304 -221 q 174 -303 229 -303 q 82 -265 124 -303 q 43 -172 43 -226 m 342 1071 q 469 1018 422 1071 q 515 897 515 965 l 515 213 q 464 89 515 135 q 342 46 413 46 q 212 94 258 46 q 165 210 165 142 l 165 899 q 216 1024 165 978 q 342 1071 267 1071 m 340 965 q 288 944 306 965 q 271 879 271 922 l 271 236 q 287 173 271 193 q 343 153 303 153 q 394 174 379 153 q 410 238 410 196 l 410 883 q 392 945 410 925 q 340 965 375 965 z "},"p":{"ha":694,"x_min":0,"x_max":694,"o":"m 0 1110 l 694 1110 l 694 1457 l 0 1457 l 0 1110 m 390 1283 q 428 1373 390 1332 q 521 1414 465 1414 q 610 1376 569 1414 q 651 1283 651 1339 q 614 1192 651 1233 q 521 1153 575 1153 q 429 1190 471 1153 q 390 1283 390 1229 m 43 1283 q 81 1373 43 1332 q 174 1414 118 1414 q 263 1376 222 1414 q 304 1283 304 1339 q 267 1192 304 1233 q 174 1153 228 1153 q 82 1190 124 1153 q 43 1283 43 1229 m 0 -346 l 694 -346 l 694 1 l 0 1 l 0 -346 m 390 -172 q 428 -81 390 -122 q 521 -42 467 -42 q 610 -79 569 -42 q 651 -172 651 -117 q 614 -262 651 -221 q 521 -303 576 -303 q 429 -265 471 -303 q 390 -172 390 -226 m 43 -172 q 81 -81 43 -122 q 174 -42 119 -42 q 263 -79 222 -42 q 304 -172 304 -117 q 267 -262 304 -221 q 174 -303 229 -303 q 82 -265 124 -303 q 43 -172 43 -226 m 179 1074 q 431 915 331 1028 q 504 790 479 860 q 529 638 529 721 q 525 567 529 599 q 510 500 521 535 q 453 386 490 436 q 285 238 383 290 l 285 56 l 179 56 l 179 1074 m 285 360 q 374 454 325 385 q 424 625 424 524 q 380 797 424 725 q 285 903 336 868 l 285 360 z "},"q":{"ha":694,"x_min":0,"x_max":694,"o":"m 0 1110 l 694 1110 l 694 1457 l 0 1457 l 0 1110 m 390 1283 q 428 1373 390 1332 q 521 1414 465 1414 q 610 1376 569 1414 q 651 1283 651 1339 q 614 1192 651 1233 q 521 1153 575 1153 q 429 1190 471 1153 q 390 1283 390 1229 m 43 1283 q 81 1373 43 1332 q 174 1414 118 1414 q 263 1376 222 1414 q 304 1283 304 1339 q 267 1192 304 1233 q 174 1153 228 1153 q 82 1190 124 1153 q 43 1283 43 1229 m 0 -346 l 694 -346 l 694 1 l 0 1 l 0 -346 m 390 -172 q 428 -81 390 -122 q 521 -42 467 -42 q 610 -79 569 -42 q 651 -172 651 -117 q 614 -262 651 -221 q 521 -303 576 -303 q 429 -265 471 -303 q 390 -172 390 -226 m 43 -172 q 81 -81 43 -122 q 174 -42 119 -42 q 263 -79 222 -42 q 304 -172 304 -117 q 267 -262 304 -221 q 174 -303 229 -303 q 82 -265 124 -303 q 43 -172 43 -226 m 342 1064 q 469 1010 422 1064 q 517 872 517 957 l 517 460 q 498 341 517 392 q 443 254 479 290 l 419 236 l 400 219 q 453 175 431 188 q 517 158 474 167 l 517 53 q 415 75 461 53 q 343 121 371 93 q 293 160 319 147 q 281 163 290 161 q 254 165 272 165 l 219 167 l 219 272 q 365 329 319 272 q 410 468 410 386 l 410 871 q 393 936 410 911 q 342 958 375 958 q 292 939 311 958 q 272 872 272 919 l 272 365 l 165 365 l 165 874 q 214 1013 165 963 q 342 1064 263 1064 z "},"r":{"ha":694,"x_min":0,"x_max":694,"o":"m 0 1110 l 694 1110 l 694 1457 l 0 1457 l 0 1110 m 390 1283 q 428 1373 390 1332 q 521 1414 465 1414 q 610 1376 569 1414 q 651 1283 651 1339 q 614 1192 651 1233 q 521 1153 575 1153 q 429 1190 471 1153 q 390 1283 390 1229 m 43 1283 q 81 1373 43 1332 q 174 1414 118 1414 q 263 1376 222 1414 q 304 1283 304 1339 q 267 1192 304 1233 q 174 1153 228 1153 q 82 1190 124 1153 q 43 1283 43 1229 m 0 -346 l 694 -346 l 694 1 l 0 1 l 0 -346 m 390 -172 q 428 -81 390 -122 q 521 -42 467 -42 q 610 -79 569 -42 q 651 -172 651 -117 q 614 -262 651 -221 q 521 -303 576 -303 q 429 -265 471 -303 q 390 -172 390 -226 m 43 -172 q 81 -81 43 -122 q 174 -42 119 -42 q 263 -79 222 -42 q 304 -172 304 -117 q 267 -262 304 -221 q 174 -303 229 -303 q 82 -265 124 -303 q 43 -172 43 -226 m 175 1074 q 425 917 326 1032 q 498 788 471 861 q 525 636 525 715 q 497 489 525 554 q 414 356 475 422 q 498 322 471 356 q 525 233 525 288 l 525 56 l 419 56 l 419 215 q 409 247 419 239 q 375 258 399 256 l 281 258 l 281 56 l 175 56 l 175 258 l 83 258 l 24 356 l 175 356 l 175 1074 m 281 356 q 372 453 328 383 q 407 528 394 485 q 419 625 419 571 q 417 681 419 667 q 408 718 415 696 q 374 799 397 758 q 281 903 329 871 l 281 356 z "},"s":{"ha":694,"x_min":0,"x_max":694,"o":"m 0 1110 l 694 1110 l 694 1457 l 0 1457 l 0 1110 m 390 1283 q 428 1373 390 1332 q 521 1414 465 1414 q 610 1376 569 1414 q 651 1283 651 1339 q 614 1192 651 1233 q 521 1153 575 1153 q 429 1190 471 1153 q 390 1283 390 1229 m 43 1283 q 81 1373 43 1332 q 174 1414 118 1414 q 263 1376 222 1414 q 304 1283 304 1339 q 267 1192 304 1233 q 174 1153 228 1153 q 82 1190 124 1153 q 43 1283 43 1229 m 0 -346 l 694 -346 l 694 1 l 0 1 l 0 -346 m 390 -172 q 428 -81 390 -122 q 521 -42 467 -42 q 610 -79 569 -42 q 651 -172 651 -117 q 614 -262 651 -221 q 521 -303 576 -303 q 429 -265 471 -303 q 390 -172 390 -226 m 43 -172 q 81 -81 43 -122 q 174 -42 119 -42 q 263 -79 222 -42 q 304 -172 304 -117 q 267 -262 304 -221 q 174 -303 229 -303 q 82 -265 124 -303 q 43 -172 43 -226 m 476 1039 q 363 863 392 950 q 344 786 351 826 l 339 722 q 356 611 339 664 l 368 571 l 394 513 q 415 468 407 489 q 435 415 424 447 q 454 303 454 364 q 450 230 454 261 q 435 168 446 199 q 392 63 418 107 l 257 63 q 324 174 300 113 q 349 299 349 235 q 344 351 349 326 q 329 400 340 375 l 311 446 q 289 492 301 471 l 268 539 l 249 593 q 232 725 232 650 q 232 765 232 749 q 238 813 232 782 q 260 897 242 851 q 291 971 272 935 q 333 1039 310 1007 l 476 1039 z "},"t":{"ha":694,"x_min":0,"x_max":694,"o":"m 0 1110 l 694 1110 l 694 1457 l 0 1457 l 0 1110 m 390 1283 q 428 1373 390 1332 q 521 1414 465 1414 q 610 1376 569 1414 q 651 1283 651 1339 q 614 1192 651 1233 q 521 1153 575 1153 q 429 1190 471 1153 q 390 1283 390 1229 m 43 1283 q 81 1373 43 1332 q 174 1414 118 1414 q 263 1376 222 1414 q 304 1283 304 1339 q 267 1192 304 1233 q 174 1153 228 1153 q 82 1190 124 1153 q 43 1283 43 1229 m 0 -346 l 694 -346 l 694 1 l 0 1 l 0 -346 m 390 -172 q 428 -81 390 -122 q 521 -42 467 -42 q 610 -79 569 -42 q 651 -172 651 -117 q 614 -262 651 -221 q 521 -303 576 -303 q 429 -265 471 -303 q 390 -172 390 -226 m 43 -172 q 81 -81 43 -122 q 174 -42 119 -42 q 263 -79 222 -42 q 304 -172 304 -117 q 267 -262 304 -221 q 174 -303 229 -303 q 82 -265 124 -303 q 43 -172 43 -226 m 511 1039 l 511 932 l 394 932 l 394 63 l 288 63 l 288 932 l 172 932 l 172 1039 l 511 1039 z "},"u":{"ha":694,"x_min":0,"x_max":694,"o":"m 0 1110 l 694 1110 l 694 1457 l 0 1457 l 0 1110 m 390 1283 q 428 1373 390 1332 q 521 1414 465 1414 q 610 1376 569 1414 q 651 1283 651 1339 q 614 1192 651 1233 q 521 1153 575 1153 q 429 1190 471 1153 q 390 1283 390 1229 m 43 1283 q 81 1373 43 1332 q 174 1414 118 1414 q 263 1376 222 1414 q 304 1283 304 1339 q 267 1192 304 1233 q 174 1153 228 1153 q 82 1190 124 1153 q 43 1283 43 1229 m 0 -346 l 694 -346 l 694 1 l 0 1 l 0 -346 m 390 -172 q 428 -81 390 -122 q 521 -42 467 -42 q 610 -79 569 -42 q 651 -172 651 -117 q 614 -262 651 -221 q 521 -303 576 -303 q 429 -265 471 -303 q 390 -172 390 -226 m 43 -172 q 81 -81 43 -122 q 174 -42 119 -42 q 263 -79 222 -42 q 304 -172 304 -117 q 267 -262 304 -221 q 174 -303 229 -303 q 82 -265 124 -303 q 43 -172 43 -226 m 521 1046 l 521 222 q 467 88 521 132 q 349 46 413 46 q 224 90 272 46 q 175 229 175 135 l 175 1046 l 281 1046 l 281 236 q 296 171 281 194 q 349 150 313 150 q 397 170 379 150 q 415 235 415 190 l 415 1046 l 521 1046 z "},"v":{"ha":694,"x_min":0,"x_max":694,"o":"m 0 1110 l 694 1110 l 694 1457 l 0 1457 l 0 1110 m 390 1283 q 428 1373 390 1332 q 521 1414 465 1414 q 610 1376 569 1414 q 651 1283 651 1339 q 614 1192 651 1233 q 521 1153 575 1153 q 429 1190 471 1153 q 390 1283 390 1229 m 43 1283 q 81 1373 43 1332 q 174 1414 118 1414 q 263 1376 222 1414 q 304 1283 304 1339 q 267 1192 304 1233 q 174 1153 228 1153 q 82 1190 124 1153 q 43 1283 43 1229 m 0 -346 l 694 -346 l 694 1 l 0 1 l 0 -346 m 390 -172 q 428 -81 390 -122 q 521 -42 467 -42 q 610 -79 569 -42 q 651 -172 651 -117 q 614 -262 651 -221 q 521 -303 576 -303 q 429 -265 471 -303 q 390 -172 390 -226 m 43 -172 q 81 -81 43 -122 q 174 -42 119 -42 q 263 -79 222 -42 q 304 -172 304 -117 q 267 -262 304 -221 q 174 -303 229 -303 q 82 -265 124 -303 q 43 -172 43 -226 m 129 1060 l 238 1060 l 282 803 l 328 535 l 379 808 l 424 1060 l 531 1060 l 331 17 l 129 1060 z "},"w":{"ha":694,"x_min":0,"x_max":694,"o":"m 0 1110 l 694 1110 l 694 1457 l 0 1457 l 0 1110 m 390 1283 q 428 1373 390 1332 q 521 1414 465 1414 q 610 1376 569 1414 q 651 1283 651 1339 q 614 1192 651 1233 q 521 1153 575 1153 q 429 1190 471 1153 q 390 1283 390 1229 m 43 1283 q 81 1373 43 1332 q 174 1414 118 1414 q 263 1376 222 1414 q 304 1283 304 1339 q 267 1192 304 1233 q 174 1153 228 1153 q 82 1190 124 1153 q 43 1283 43 1229 m 0 -346 l 694 -346 l 694 1 l 0 1 l 0 -346 m 390 -172 q 428 -81 390 -122 q 521 -42 467 -42 q 610 -79 569 -42 q 651 -172 651 -117 q 614 -262 651 -221 q 521 -303 576 -303 q 429 -265 471 -303 q 390 -172 390 -226 m 43 -172 q 81 -81 43 -122 q 174 -42 119 -42 q 263 -79 222 -42 q 304 -172 304 -117 q 267 -262 304 -221 q 174 -303 229 -303 q 82 -265 124 -303 q 43 -172 43 -226 m 43 1053 l 157 1053 l 176 936 l 200 794 l 225 654 l 246 539 l 303 836 l 351 1094 l 374 972 l 401 822 l 431 671 l 456 539 l 478 664 l 501 803 l 525 939 l 546 1053 l 656 1053 l 463 10 l 350 567 l 326 453 l 299 300 l 271 140 l 249 10 l 43 1053 z "},"x":{"ha":694,"x_min":0,"x_max":694,"o":"m 0 1110 l 694 1110 l 694 1457 l 0 1457 l 0 1110 m 390 1283 q 428 1373 390 1332 q 521 1414 465 1414 q 610 1376 569 1414 q 651 1283 651 1339 q 614 1192 651 1233 q 521 1153 575 1153 q 429 1190 471 1153 q 390 1283 390 1229 m 43 1283 q 81 1373 43 1332 q 174 1414 118 1414 q 263 1376 222 1414 q 304 1283 304 1339 q 267 1192 304 1233 q 174 1153 228 1153 q 82 1190 124 1153 q 43 1283 43 1229 m 0 -346 l 694 -346 l 694 1 l 0 1 l 0 -346 m 390 -172 q 428 -81 390 -122 q 521 -42 467 -42 q 610 -79 569 -42 q 651 -172 651 -117 q 614 -262 651 -221 q 521 -303 576 -303 q 429 -265 471 -303 q 390 -172 390 -226 m 43 -172 q 81 -81 43 -122 q 174 -42 119 -42 q 263 -79 222 -42 q 304 -172 304 -117 q 267 -262 304 -221 q 174 -303 229 -303 q 82 -265 124 -303 q 43 -172 43 -226 m 171 1039 l 274 1039 l 357 725 l 440 1039 l 543 1039 l 513 918 l 482 804 l 443 657 l 421 579 l 418 565 l 417 551 l 422 519 l 446 433 l 486 282 l 543 63 l 442 63 l 358 376 l 338 308 l 314 222 l 290 135 l 274 63 l 171 63 l 196 167 l 233 308 l 272 456 l 293 528 l 299 550 l 292 581 l 268 667 l 226 815 l 171 1039 z "},"y":{"ha":694,"x_min":0,"x_max":694,"o":"m 0 1110 l 694 1110 l 694 1457 l 0 1457 l 0 1110 m 390 1283 q 428 1373 390 1332 q 521 1414 465 1414 q 610 1376 569 1414 q 651 1283 651 1339 q 614 1192 651 1233 q 521 1153 575 1153 q 429 1190 471 1153 q 390 1283 390 1229 m 43 1283 q 81 1373 43 1332 q 174 1414 118 1414 q 263 1376 222 1414 q 304 1283 304 1339 q 267 1192 304 1233 q 174 1153 228 1153 q 82 1190 124 1153 q 43 1283 43 1229 m 0 -346 l 694 -346 l 694 1 l 0 1 l 0 -346 m 390 -172 q 428 -81 390 -122 q 521 -42 467 -42 q 610 -79 569 -42 q 651 -172 651 -117 q 614 -262 651 -221 q 521 -303 576 -303 q 429 -265 471 -303 q 390 -172 390 -226 m 43 -172 q 81 -81 43 -122 q 174 -42 119 -42 q 263 -79 222 -42 q 304 -172 304 -117 q 267 -262 304 -221 q 174 -303 229 -303 q 82 -265 124 -303 q 43 -172 43 -226 m 169 1039 l 275 1039 l 275 454 q 292 393 275 417 q 343 374 308 374 q 394 394 378 374 q 411 451 411 415 l 411 1039 l 517 1039 l 517 444 q 488 338 517 386 q 396 271 463 292 l 396 63 l 290 63 l 290 271 q 195 344 221 294 q 169 447 169 393 l 169 1039 z "},"z":{"ha":694,"x_min":0,"x_max":694,"o":"m 0 1110 l 694 1110 l 694 1457 l 0 1457 l 0 1110 m 390 1283 q 428 1373 390 1332 q 521 1414 465 1414 q 610 1376 569 1414 q 651 1283 651 1339 q 614 1192 651 1233 q 521 1153 575 1153 q 429 1190 471 1153 q 390 1283 390 1229 m 43 1283 q 81 1373 43 1332 q 174 1414 118 1414 q 263 1376 222 1414 q 304 1283 304 1339 q 267 1192 304 1233 q 174 1153 228 1153 q 82 1190 124 1153 q 43 1283 43 1229 m 0 -346 l 694 -346 l 694 1 l 0 1 l 0 -346 m 390 -172 q 428 -81 390 -122 q 521 -42 467 -42 q 610 -79 569 -42 q 651 -172 651 -117 q 614 -262 651 -221 q 521 -303 576 -303 q 429 -265 471 -303 q 390 -172 390 -226 m 43 -172 q 81 -81 43 -122 q 174 -42 119 -42 q 263 -79 222 -42 q 304 -172 304 -117 q 267 -262 304 -221 q 174 -303 229 -303 q 82 -265 124 -303 q 43 -172 43 -226 m 190 1039 l 517 1039 l 300 168 l 501 168 l 501 63 l 167 63 l 381 932 l 190 932 l 190 1039 z "},"{":{"ha":868,"x_min":-1,"x_max":867,"o":"m 832 1285 q 794 1378 832 1336 q 701 1415 753 1415 q 610 1378 651 1415 q 572 1285 572 1340 q 610 1193 572 1235 q 701 1156 647 1156 q 794 1193 753 1156 q 832 1285 832 1235 m 524 1281 q 485 1371 524 1332 q 393 1410 446 1410 q 301 1372 339 1410 q 263 1281 263 1333 q 301 1188 263 1226 q 393 1150 343 1150 q 485 1189 447 1150 q 524 1281 524 1228 m 303 390 q 265 480 303 439 q 172 521 228 521 q 81 483 122 521 q 42 390 42 444 q 79 299 42 340 q 172 260 118 260 q 262 297 221 260 q 303 390 303 335 m 832 -174 q 794 -82 832 -124 q 701 -44 754 -44 q 610 -82 650 -44 q 572 -174 572 -122 q 581 -222 572 -200 q 610 -267 589 -243 q 701 -304 650 -304 q 794 -267 750 -304 q 832 -174 832 -226 m 306 1063 q 268 1156 306 1114 q 176 1193 226 1193 q 83 1156 125 1193 q 46 1063 46 1114 q 83 971 46 1013 q 176 933 121 933 q 268 971 226 933 q 306 1063 306 1008 m 524 -169 q 485 -78 524 -117 q 393 -39 446 -39 q 301 -76 343 -39 q 263 -169 263 -115 q 300 -260 263 -218 q 393 -299 339 -299 q 485 -260 446 -299 q 524 -169 524 -221 m 306 49 q 268 140 306 100 q 176 178 228 178 q 128 169 150 178 q 83 140 107 161 q 46 49 46 100 q 83 -44 46 0 q 176 -82 124 -82 q 268 -44 226 -82 q 306 49 306 -4 m 303 735 q 264 827 303 789 q 172 865 225 865 q 80 826 118 865 q 42 735 42 788 q 81 642 42 681 q 172 604 121 604 q 265 644 226 604 q 303 735 303 683 m 346 175 l 346 146 l 350 122 q 386 42 354 74 q 486 4 411 17 l 519 1 l 867 1 l 867 -346 l 433 -346 q 372 -340 394 -346 q 129 -215 233 -315 q 17 -17 54 -142 l 4 35 l -1 88 l -1 575 l -1 1024 q 4 1082 -1 1058 l 17 1128 q 62 1240 35 1193 q 129 1326 89 1286 q 372 1451 232 1426 l 433 1457 l 867 1457 l 867 1110 l 519 1110 l 486 1107 q 383 1068 411 1099 q 350 989 356 1038 l 346 951 l 346 936 l 346 561 l 346 175 z "},"|":{"ha":347,"x_min":0,"x_max":347,"o":"m 0 1110 l 347 1110 l 347 1457 l 0 1457 l 0 1110 m 43 1283 q 81 1373 43 1332 q 174 1414 118 1414 q 263 1376 222 1414 q 304 1283 304 1339 q 267 1192 304 1233 q 174 1153 228 1153 q 82 1190 124 1153 q 43 1283 43 1229 m 0 -346 l 347 -346 l 347 1 l 0 1 l 0 -346 m 43 -172 q 81 -81 43 -122 q 174 -42 119 -42 q 263 -79 222 -42 q 304 -172 304 -117 q 267 -262 304 -221 q 174 -303 229 -303 q 82 -265 124 -303 q 43 -172 43 -226 m 215 1053 l 215 76 l 110 76 l 110 1053 l 215 1053 z "},"}":{"ha":1028,"x_min":3,"x_max":871,"o":"m 871 88 q 865 29 871 53 l 853 -17 q 807 -126 836 -78 q 740 -215 783 -172 q 497 -340 638 -315 l 436 -346 l 3 -346 l 3 1 l 350 1 l 383 4 q 485 43 458 15 q 519 122 511 71 l 522 149 l 524 175 l 524 561 l 524 936 l 524 951 l 519 989 q 488 1065 515 1035 q 383 1107 460 1094 l 350 1110 l 3 1110 l 3 1457 l 436 1457 q 497 1451 475 1457 q 740 1326 636 1426 q 853 1128 815 1253 l 865 1075 l 871 1024 l 871 575 l 871 88 m 824 1063 q 786 1156 824 1111 q 693 1193 746 1193 q 601 1156 643 1193 q 564 1063 564 1115 q 601 971 564 1011 q 693 933 642 933 q 741 942 719 933 q 786 971 763 950 q 824 1063 824 1011 m 607 1281 q 568 1370 607 1331 q 476 1410 529 1410 q 385 1371 424 1410 q 346 1281 346 1332 q 384 1190 346 1229 q 476 1150 422 1150 q 568 1188 526 1150 q 607 1281 607 1226 m 297 1285 q 289 1333 297 1311 q 260 1378 281 1354 q 168 1415 219 1415 q 75 1378 119 1415 q 38 1285 38 1338 q 75 1193 38 1235 q 168 1156 115 1156 q 260 1193 219 1156 q 297 1285 297 1233 m 828 735 q 790 824 828 783 q 697 865 753 865 q 606 828 647 865 q 567 735 567 789 q 604 643 567 685 q 697 604 643 604 q 787 642 746 604 q 828 735 828 679 m 828 390 q 789 483 828 444 q 697 521 750 521 q 605 482 643 521 q 567 390 567 443 q 606 298 567 336 q 697 260 646 260 q 790 299 751 260 q 828 390 828 339 m 824 49 q 786 140 824 99 q 693 178 749 178 q 601 140 643 178 q 564 49 564 103 q 601 -44 564 -3 q 693 -82 643 -82 q 786 -44 744 -82 q 824 49 824 -3 m 607 -169 q 568 -76 607 -115 q 476 -39 526 -39 q 384 -77 422 -39 q 346 -169 346 -115 q 385 -260 346 -221 q 476 -299 424 -299 q 569 -260 531 -299 q 607 -169 607 -221 m 297 -174 q 260 -82 297 -124 q 168 -44 222 -44 q 75 -82 117 -44 q 38 -174 38 -124 q 75 -267 38 -225 q 168 -304 117 -304 q 260 -267 218 -304 q 297 -174 297 -229 z "},"~":{"ha":694,"x_min":0,"x_max":694,"o":"m 0 1110 l 694 1110 l 694 1457 l 0 1457 l 0 1110 m 390 1283 q 428 1373 390 1332 q 521 1414 465 1414 q 610 1376 569 1414 q 651 1283 651 1339 q 614 1192 651 1233 q 521 1153 575 1153 q 429 1190 471 1153 q 390 1283 390 1229 m 43 1283 q 81 1373 43 1332 q 174 1414 118 1414 q 263 1376 222 1414 q 304 1283 304 1339 q 267 1192 304 1233 q 174 1153 228 1153 q 82 1190 124 1153 q 43 1283 43 1229 m 0 -346 l 694 -346 l 694 1 l 0 1 l 0 -346 m 390 -172 q 428 -81 390 -122 q 521 -42 467 -42 q 610 -79 569 -42 q 651 -172 651 -117 q 614 -262 651 -221 q 521 -303 576 -303 q 429 -265 471 -303 q 390 -172 390 -226 m 43 -172 q 81 -81 43 -122 q 174 -42 119 -42 q 263 -79 222 -42 q 304 -172 304 -117 q 267 -262 304 -221 q 174 -303 229 -303 q 82 -265 124 -303 q 43 -172 43 -226 m 204 856 q 294 842 256 856 q 364 810 333 828 l 403 789 l 432 776 l 469 764 l 503 761 q 574 790 542 761 q 602 819 589 806 q 628 850 615 833 l 688 779 q 625 701 668 744 q 606 686 618 694 q 572 668 594 678 q 510 658 549 658 q 424 672 469 658 l 347 706 l 276 738 q 207 753 242 753 q 134 726 161 753 q 83 661 107 699 l 19 731 q 93 819 49 783 q 204 856 138 856 z "},"":{"ha":694,"x_min":0,"x_max":0,"o":""},"":{"ha":694,"x_min":0,"x_max":0,"o":""}}}
